<?xml version="1.0" encoding="UTF-8" standalone="no"?>
<!-- Created with Inkscape (http://www.inkscape.org/) -->

<svg
   width="210mm"
   height="297mm"
   viewBox="0 0 210 297"
   version="1.1"
   id="svg5"
   inkscape:version="1.2.2 (732a01da63, 2022-12-09)"
   sodipodi:docname="UI Elements.svg"
   inkscape:export-filename="UI Elements.png"
   inkscape:export-xdpi="1146.8517"
   inkscape:export-ydpi="1146.8517"
   xml:space="preserve"
   xmlns:inkscape="http://www.inkscape.org/namespaces/inkscape"
   xmlns:sodipodi="http://sodipodi.sourceforge.net/DTD/sodipodi-0.dtd"
   xmlns="http://www.w3.org/2000/svg"
   xmlns:svg="http://www.w3.org/2000/svg"><sodipodi:namedview
     id="namedview7"
     pagecolor="#505050"
     bordercolor="#eeeeee"
     borderopacity="1"
     inkscape:showpageshadow="0"
     inkscape:pageopacity="0"
     inkscape:pagecheckerboard="0"
     inkscape:deskcolor="#505050"
     inkscape:document-units="mm"
     showgrid="false"
     inkscape:zoom="1.829812"
     inkscape:cx="353.31498"
     inkscape:cy="456.60428"
     inkscape:window-width="1450"
     inkscape:window-height="1243"
     inkscape:window-x="853"
     inkscape:window-y="68"
     inkscape:window-maximized="0"
     inkscape:current-layer="layer1" /><defs
     id="defs2" /><g
     inkscape:label="Layer 1"
     inkscape:groupmode="layer"
     id="layer1"><g
       id="g2615"
       inkscape:export-filename=".\g2615.png"
       inkscape:export-xdpi="624.43616"
       inkscape:export-ydpi="624.43616"><path
         style="fill:none;fill-opacity:1;stroke:#ffffff;stroke-width:3;stroke-dasharray:none;stroke-opacity:1"
         id="path1694"
         sodipodi:type="arc"
         sodipodi:cx="151.63545"
         sodipodi:cy="33.835442"
         sodipodi:rx="26.460299"
         sodipodi:ry="26.460299"
         sodipodi:start="5.2359878"
         sodipodi:end="1.0471976"
         sodipodi:arc-type="arc"
         d="M 164.8656,10.920151 A 26.460299,26.460299 0 0 1 178.09575,33.835442 26.460299,26.460299 0 0 1 164.8656,56.750733"
         sodipodi:open="true" /><path
         style="fill:none;fill-opacity:1;stroke:#ffffff;stroke-width:3;stroke-dasharray:none;stroke-opacity:1"
         d="m 178.14216,32.967866 h 14.42173"
         id="path1857" /><circle
         style="fill:#ffffff;fill-opacity:1;stroke:none;stroke-width:3;stroke-dasharray:none;stroke-opacity:1"
         id="circle1864"
         cx="192.43552"
         cy="32.974678"
         r="1.5" /><circle
         style="fill:#ffffff;fill-opacity:1;stroke:none;stroke-width:3;stroke-dasharray:none;stroke-opacity:1"
         id="circle1866"
         cx="164.95724"
         cy="10.972884"
         r="1.5" /><circle
         style="fill:#ffffff;fill-opacity:1;stroke:none;stroke-width:3;stroke-dasharray:none;stroke-opacity:1"
         id="circle1868"
         cx="164.79109"
         cy="56.78492"
         r="1.5" /></g><path
       d="m 109.28758,136.76676 c 0.0429,-0.22918 0.47753,-0.2475 0.56395,-0.0238 0.0523,0.13537 -0.0572,0.21766 -0.24337,0.18285 -0.18617,-0.0348 -0.33043,-0.1064 -0.32058,-0.15905 z m -2.30219,-0.90647 c 0.0348,-0.18619 0.14971,-0.25982 0.25531,-0.16371 0.10561,0.0962 0.17482,0.26673 0.15381,0.37909 -0.021,0.11235 -0.13591,0.18602 -0.25532,0.16369 -0.11941,-0.0223 -0.18862,-0.19293 -0.1538,-0.37907 z m 1.49272,0.42879 c 0.039,-0.20881 0.61436,-0.36301 1.02473,-0.27464 0.13876,0.03 0.0359,0.16233 -0.22871,0.29429 -0.5461,0.27237 -0.84924,0.2649 -0.79602,-0.0196 z m 3.11891,0.14396 c 0.0189,-0.10128 0.45505,-0.28653 0.96913,-0.41164 0.51408,-0.12511 1.13328,-0.3786 1.37602,-0.56325 0.53383,-0.40613 0.75657,-0.39126 0.67497,0.045 -0.0335,0.17911 -0.18627,0.30222 -0.3395,0.27356 -0.15322,-0.0287 -0.7677,0.15978 -1.36549,0.41874 -1.14609,0.49648 -1.37117,0.53716 -1.31514,0.23759 z m 1.0917,0.17008 c 0.0223,-0.11939 0.19292,-0.18863 0.37908,-0.15381 0.18616,0.0348 0.25983,0.14971 0.16369,0.25532 -0.0962,0.10559 -0.26671,0.17482 -0.37907,0.15381 -0.11237,-0.021 -0.18603,-0.13592 -0.1637,-0.25532 z m 1.63815,0.32976 c -0.046,-0.11927 0.0727,-0.24557 0.26392,-0.28064 0.21121,-0.0387 0.32442,0.0607 0.28807,0.25502 -0.0657,0.35115 -0.41986,0.3676 -0.55199,0.0256 z m -6.89713,-1.49116 c -0.0407,-0.10539 0.25375,-0.0898 0.65437,0.0346 0.40063,0.12437 0.72126,0.26437 0.71254,0.31099 -0.0306,0.16341 -1.29364,-0.15597 -1.36691,-0.34556 z m 3.24589,0.44057 c 0.26457,-0.13196 0.57085,-0.22316 0.6806,-0.20263 0.27499,0.0514 2.57361,-0.90695 2.6073,-1.08707 0.015,-0.0801 0.29231,-0.21132 0.61627,-0.29152 0.32397,-0.0801 0.58042,-0.0998 0.56991,-0.0436 -0.0347,0.18549 -1.16596,1.0147 -1.33991,0.98217 -0.0938,-0.0175 -0.682,0.17263 -1.30725,0.42258 -0.62525,0.24994 -1.20462,0.39272 -1.28748,0.31731 -0.0829,-0.0755 -0.23061,-0.0493 -0.3283,0.058 -0.0977,0.10733 -0.29342,0.1703 -0.43492,0.13989 -0.14148,-0.0305 -0.0408,-0.16322 0.22378,-0.2952 z m -4.05163,-0.79313 c -0.19874,-0.0938 -0.34614,-0.25172 -0.32754,-0.3512 0.0186,-0.0994 0.21967,-0.0932 0.44682,0.0136 0.22714,0.10708 0.39684,0.28108 0.37711,0.38656 -0.0197,0.10549 -0.0582,0.17587 -0.0854,0.15646 -0.0273,-0.0193 -0.21219,-0.11201 -0.41095,-0.20567 z m 2.67221,0.42996 c 0.0223,-0.11939 0.13831,-0.19883 0.2577,-0.1765 0.11941,0.0223 0.19884,0.13831 0.17651,0.25771 -0.0223,0.1194 -0.13831,0.19884 -0.25772,0.17651 -0.1194,-0.0223 -0.19883,-0.13831 -0.17649,-0.25772 z m 6.07794,1.14278 c 0.055,-0.29432 0.47504,-0.40488 0.57317,-0.15091 0.0469,0.12142 -0.0712,0.24948 -0.2624,0.28459 -0.19125,0.0352 -0.33107,-0.0251 -0.31076,-0.1337 z m -5.43739,-1.32426 c -0.0367,-0.19948 -0.32397,-0.33362 -0.79709,-0.37208 -0.54911,-0.0447 -0.62212,-0.0868 -0.28317,-0.1634 0.43788,-0.099 0.43802,-0.11205 0.003,-0.31713 -0.30702,-0.14482 -0.47186,-0.11603 -0.5102,0.089 -0.0794,0.42477 -1.11425,0.10689 -1.17171,-0.35996 -0.0494,-0.40161 -1.97987,-2.01237 -2.03816,-1.70065 -0.0195,0.10456 0.31195,0.45799 0.7367,0.78532 0.77635,0.59835 1.14895,1.12147 0.74497,1.04591 -0.11941,-0.0223 -0.25922,-0.14959 -0.31069,-0.2828 -0.0515,-0.1332 -0.26479,-0.27421 -0.47404,-0.31335 -0.20926,-0.0391 -0.53798,-0.27757 -0.73047,-0.52984 -0.19249,-0.25229 -0.66512,-0.80085 -1.05025,-1.21902 -0.38514,-0.41819 -0.68103,-0.86317 -0.65751,-0.9889 0.0236,-0.12572 0.33711,0.14658 0.6969,0.60504 0.35978,0.45848 0.72878,0.78251 0.81998,0.72001 0.0912,-0.0625 -0.004,-0.28416 -0.21235,-0.49264 -0.53368,-0.53496 -1.0073,-1.23696 -1.1649,-1.72656 -0.23155,-0.71935 0.27244,-0.39765 0.67104,0.42834 0.20306,0.42082 0.76182,1.09887 1.24168,1.50677 0.47985,0.4079 0.98553,0.86736 1.12375,1.021 0.13822,0.15366 0.37859,0.32303 0.53417,0.3764 0.15558,0.0534 0.66496,0.22537 1.13202,0.38212 0.83906,0.28165 1.6436,0.82545 1.84343,1.246 0.14602,0.30729 0.67073,0.0606 0.54781,-0.25748 -0.0607,-0.15711 -0.0121,-0.1815 0.12064,-0.0607 0.15868,0.14442 0.13528,0.31054 -0.0818,0.58115 -0.35416,0.44132 -0.65253,0.44025 -0.73382,-0.003 z m -1.96198,-1.19806 c -0.45062,-0.41873 -0.72535,-0.38342 -0.32551,0.0419 0.19993,0.21268 0.41832,0.34913 0.48531,0.30328 0.067,-0.0459 -0.005,-0.20122 -0.1598,-0.34518 z m -2.40313,0.21815 c -0.055,-0.14228 -0.25188,-0.23081 -0.43755,-0.19673 -0.18566,0.034 -0.2655,-0.0172 -0.17737,-0.11405 0.088,-0.0968 -0.034,-0.28013 -0.27138,-0.40741 -0.4134,-0.2217 -1.12524,-1.09119 -1.08211,-1.3218 0.0252,-0.135 0.79287,0.50183 1.10666,0.91811 0.12541,0.16637 0.49883,0.48842 0.82985,0.71562 0.331,0.2272 0.58802,0.48702 0.57113,0.57726 -0.0459,0.24549 -0.42474,0.12532 -0.53922,-0.17105 z m 5.81561,0.77105 c 0.27432,-0.22788 0.27937,-0.28994 0.0274,-0.33706 -0.16985,-0.0318 -0.4022,-0.19411 -0.51634,-0.36075 -0.15901,-0.23219 -0.038,-0.36707 0.51786,-0.57728 0.83185,-0.31453 0.94728,-0.31744 0.89215,-0.0226 -0.0219,0.11714 -0.29556,0.22859 -0.60808,0.24768 -0.31253,0.0191 -0.58455,0.12183 -0.60445,0.2283 -0.0693,0.37053 0.48745,0.28761 1.20085,-0.17888 0.39491,-0.25821 0.69786,-0.36166 0.67322,-0.22988 -0.0246,0.13178 -0.35098,0.38982 -0.72517,0.5734 -0.37419,0.18358 -0.57956,0.35586 -0.45634,0.3828 0.12319,0.0271 0.61834,-0.1875 1.10029,-0.4766 0.48196,-0.2891 0.75021,-0.49004 0.59615,-0.44661 -0.35122,0.0991 -0.54695,-0.34521 -0.20953,-0.47556 0.3974,-0.15356 1.10556,-1.16123 1.40366,-1.99731 0.20715,-0.58103 0.20128,-0.74332 -0.0239,-0.65632 -0.22514,0.087 -0.22707,-0.0826 -5e-4,-0.70618 0.16428,-0.45196 0.3408,-1.04134 0.39236,-1.30978 0.0513,-0.2685 0.19804,-0.46854 0.32549,-0.44471 0.13294,0.0248 0.13837,0.21747 0.0128,0.4518 -0.13651,0.25446 -0.12023,0.42692 0.0431,0.45746 0.32303,0.0604 0.56693,-2.30308 0.28079,-2.72089 -0.10266,-0.14988 -0.14778,-0.48038 -0.10027,-0.73444 0.0886,-0.47397 -0.29266,-2.63439 -0.7986,-4.52485 -0.36985,-1.38197 -1.42529,-2.95706 -2.17235,-3.24189 -1.49457,-0.56987 -3.29257,0.15434 -4.34453,1.74993 -0.66337,1.00617 -1.10835,3.6218 -0.76486,4.49611 0.0561,0.14274 0.098,0.37571 0.0932,0.51772 -0.005,0.142 0.23601,0.76185 0.53519,1.3774 0.46791,0.96274 0.63706,1.12507 1.21015,1.16135 0.36643,0.0232 0.77392,0.0554 0.90552,0.0717 0.24234,0.03 0.91408,-0.78992 0.99301,-1.21202 0.0237,-0.12642 -0.30553,0.0267 -0.73152,0.34027 -0.75815,0.55808 -1.3312,0.51695 -0.97049,-0.0697 0.10141,-0.165 0.0592,-0.31881 -0.0956,-0.34776 -0.15263,-0.0286 -0.42596,-0.24697 -0.60736,-0.48547 -0.19467,-0.25586 -0.34891,-0.33154 -0.37639,-0.18465 -0.0255,0.13693 0.12603,0.40751 0.33696,0.60133 0.2109,0.19382 0.36857,0.43213 0.35035,0.52955 -0.0182,0.0975 -0.21132,-0.005 -0.42909,-0.22717 -0.46993,-0.4799 -0.85,-1.61317 -0.62417,-1.86127 0.24902,-0.27358 0.52176,0.10065 0.31684,0.43313 -0.12384,0.2014 -0.0737,0.27801 0.15437,0.23613 0.1857,-0.034 0.43473,0.11243 0.55336,0.32567 0.31133,0.55936 1.63686,0.77178 1.71677,0.27508 0.0342,-0.20989 0.23947,-0.81694 0.45702,-1.34886 0.55865,-1.36574 0.1681,-3.51393 -0.67024,-3.68721 -0.0962,-0.02 -0.13291,0.0728 -0.0815,0.20603 0.0515,0.13323 -0.009,0.22307 -0.13379,0.19969 -0.12504,-0.0234 -0.36293,0.33659 -0.52863,0.79994 -0.16571,0.46336 -0.39227,0.82546 -0.50346,0.80466 -0.11119,-0.0208 -0.12895,-0.11821 -0.0395,-0.21656 0.0895,-0.0983 0.0735,-0.25997 -0.0356,-0.35923 -0.10906,-0.0993 -0.10459,-0.28237 0.01,-0.4069 0.31636,-0.34399 0.41588,-0.74932 0.19419,-0.79078 -0.10885,-0.0203 -0.23444,0.15838 -0.27911,0.3972 -0.0447,0.23882 -0.18667,0.41449 -0.31556,0.39039 -0.27756,-0.0519 0.22105,-1.37785 0.53965,-1.43501 0.11313,-0.0204 0.17525,-0.11567 0.13802,-0.21197 -0.0372,-0.0963 0.20234,-0.40842 0.53229,-0.69363 0.69844,-0.6037 1.70983,-0.61159 2.33076,-0.0182 0.66777,0.63816 0.98633,0.56254 0.54371,-0.12906 -0.33089,-0.51701 -0.54879,-0.63559 -1.20824,-0.65751 -1.03286,-0.0348 -1.82305,0.29215 -2.42267,1.00101 -0.26246,0.31029 -0.56257,0.54883 -0.6669,0.53011 -0.10433,-0.0187 -0.0564,-0.14482 0.1066,-0.2802 0.16296,-0.13537 0.25518,-0.30618 0.20492,-0.37956 -0.12238,-0.17869 1.87967,-1.39569 2.22796,-1.35435 0.15078,0.0179 0.51546,0.0512 0.81037,0.0739 0.49879,0.0384 0.81107,0.35088 1.97524,1.97597 0.29416,0.41061 0.78044,2.04253 0.96937,3.25309 0.0579,0.37123 0.0259,0.38666 -0.211,0.10155 -0.15362,-0.18494 -0.2518,-0.48336 -0.21817,-0.66316 0.0779,-0.41641 -0.77829,-2.898 -1.01511,-2.94229 -0.38261,-0.0715 -0.51005,0.53877 -0.14814,0.70945 0.38584,0.18196 0.91405,1.91726 1.0494,3.44758 0.0251,0.28274 0.13353,0.53056 0.24116,0.55068 0.10761,0.0201 0.16682,-0.12048 0.13158,-0.31244 -0.0352,-0.19197 0.0335,-0.3308 0.1527,-0.3085 0.19792,0.037 0.34015,0.79145 0.30737,1.63038 -0.007,0.18407 0.0102,0.63213 0.0387,0.99576 0.0371,0.47389 -0.0107,0.60453 -0.16766,0.46136 -0.12075,-0.10988 -0.20902,-0.59879 -0.19618,-1.08638 0.0129,-0.4876 -0.0465,-0.95009 -0.13184,-1.02777 -0.27368,-0.24911 -0.28786,0.83028 -0.0215,1.64171 0.31389,0.95657 0.18281,1.79866 -0.33517,2.15346 -0.21262,0.14562 -0.42011,0.44403 -0.46108,0.66314 -0.0545,0.29147 -0.18531,0.34611 -0.48748,0.2036 -0.29607,-0.13961 -0.43293,-0.088 -0.4836,0.18283 -0.0611,0.32678 -0.015,0.34654 0.34609,0.14713 0.3574,-0.19768 0.39196,-0.18712 0.24283,0.0741 -0.0956,0.1675 -0.3413,0.25747 -0.54597,0.19996 -0.20634,-0.0581 -0.57828,0.13732 -0.835,0.43848 -0.53755,0.6306 -1.6035,0.81429 -2.81597,0.48516 -1.81947,-0.49382 -3.72092,-3.38168 -3.62657,-5.50787 0.0214,-0.47781 0.0474,-0.49666 0.18382,-0.13237 0.0875,0.23364 0.0811,0.51049 -0.0139,0.61526 -0.0953,0.10477 -0.0944,0.20538 0.002,0.22356 0.0966,0.0182 0.35604,0.56534 0.57658,1.21582 0.61891,1.82563 1.58018,2.79164 3.17521,3.19093 1.26313,0.31619 1.34631,0.305 2.19686,-0.29602 0.48619,-0.34356 0.92042,-0.8193 0.96489,-1.05713 0.0615,-0.32918 -0.13178,-0.24001 -0.80967,0.37346 -0.74002,0.66968 -1.03446,0.79111 -1.74204,0.71847 -0.46832,-0.0481 -1.0682,-0.18685 -1.33299,-0.3087 -0.61244,-0.28144 -1.68835,-1.64599 -2.27671,-2.88742 -0.56325,-1.18851 -0.52034,-1.70556 0.0586,-0.70686 0.2335,0.40276 0.4114,0.80252 0.39535,0.88834 -0.0548,0.29287 1.11991,2.00373 1.29393,1.88455 0.0954,-0.0653 0.15298,-0.009 0.12794,0.12464 -0.0661,0.35302 1.35352,0.85464 1.76718,0.62442 0.18791,-0.10458 0.50407,-0.0903 0.70256,0.0318 0.24778,0.15237 0.32657,0.13311 0.25142,-0.0614 -0.12963,-0.33545 -0.86855,-0.51469 -1.02569,-0.24878 -0.14794,0.25025 -1.62083,-0.60697 -1.97181,-1.14757 -0.26063,-0.40143 -0.24639,-0.40424 0.20925,-0.0412 0.77547,0.61774 1.64308,0.80851 2.17932,0.47929 0.30795,-0.1891 0.46508,-0.20105 0.43366,-0.033 -0.0271,0.14497 0.0597,0.22147 0.1929,0.17002 0.13322,-0.0515 0.26047,-0.19128 0.2828,-0.31067 0.0223,-0.11942 -0.0684,-0.17503 -0.20158,-0.12357 -0.26076,0.10075 -0.27164,-0.22412 -0.0134,-0.40097 0.33946,-0.23249 0.62202,0.50969 0.3324,0.87308 -0.49624,0.62261 -0.13996,0.63629 0.40284,0.0154 0.28503,-0.32599 0.64373,-0.56926 0.7971,-0.54057 0.15337,0.0287 0.29712,-0.0455 0.31945,-0.16497 0.0223,-0.1194 0.14489,-0.1976 0.27234,-0.17376 0.13294,0.0248 0.13837,0.21746 0.0128,0.45179 -0.12045,0.22464 -0.12249,0.4265 -0.005,0.44856 0.28463,0.0532 0.79744,-1.11468 0.91176,-2.07653 0.12114,-1.01919 0.0477,-1.39794 -0.24882,-1.28337 -0.14513,0.0561 -0.18861,-0.19653 -0.10736,-0.62377 0.17172,-0.90188 -0.19411,-3.34585 -0.61936,-4.1397 l -0.32124,-0.59969 0.20549,0.82489 c 0.113,0.45368 0.25875,0.98984 0.32388,1.19146 0.13725,0.42487 0.15688,1.27957 0.0627,2.73006 -0.0566,0.87301 -0.13001,1.03247 -0.48691,1.05781 -0.42664,0.0303 -0.5542,0.27587 -0.79854,1.53747 -0.0746,0.38772 -0.23428,0.68648 -0.35377,0.66413 -0.11951,-0.0223 -0.12648,-0.1404 -0.0154,-0.26232 0.13114,-0.14406 0.0948,-0.18037 -0.10378,-0.10365 -0.23244,0.0898 -0.23795,0.003 -0.0231,-0.36283 0.35328,-0.60127 0.84555,-3.63889 0.63864,-3.94093 -0.0866,-0.12646 -0.16425,0.0588 -0.17868,0.4261 -0.0143,0.35736 -0.12466,0.68837 -0.24689,0.73537 -0.12181,0.0471 -0.17331,-0.17814 -0.11447,-0.5004 0.0593,-0.32218 0.10554,-0.96537 0.10386,-1.42914 -0.004,-0.96042 0.19314,-1.08173 0.3493,-0.21555 0.0576,0.31974 0.25382,0.60923 0.43589,0.64328 0.25197,0.0471 0.28312,0.31811 0.13042,1.13463 -0.11033,0.59001 -0.11105,1.15431 -0.001,1.25401 0.18387,0.16735 0.36992,-1.1387 0.34612,-2.42982 -0.0116,-0.62595 -0.41083,-1.96828 -0.86028,-2.89207 -0.30301,-0.62278 -0.31313,-0.75267 -0.0458,-0.58831 0.21221,0.13053 0.30598,0.115 0.24584,-0.0406 -0.14105,-0.36506 -1.7432,-0.88933 -2.22096,-0.72676 -0.32092,0.10922 -0.25705,0.16254 0.30106,0.25139 0.82186,0.13081 1.56559,1.106 2.02108,2.65003 0.30947,1.04908 0.3196,1.20688 0.0744,1.16103 -0.0902,-0.0168 -0.24155,-0.35875 -0.33621,-0.75968 -0.12824,-0.5432 -0.23346,-0.6631 -0.41284,-0.47045 -0.1962,0.21075 -0.23483,0.19732 -0.20886,-0.0725 0.0176,-0.1821 0.0605,-0.40817 0.0949,-0.50246 0.0349,-0.0942 -0.0883,-0.49902 -0.27393,-0.8996 -0.27257,-0.58827 -0.47904,-0.74504 -1.07374,-0.81532 -0.40496,-0.0479 -0.70075,0.005 -0.65732,0.11734 0.0434,0.11239 -0.0657,0.32454 -0.24257,0.47144 -0.4057,0.33703 -0.27505,0.36103 0.57153,0.10484 0.60504,-0.18299 0.69905,-0.15978 0.93894,0.23176 0.47391,0.77354 0.61928,1.81815 0.44834,3.22173 -0.11959,0.98221 -0.24266,1.35901 -0.43223,1.32356 -0.20071,-0.0375 -0.21543,0.0228 -0.0607,0.24876 0.15479,0.22595 0.29081,0.25021 0.56088,0.0998 0.28859,-0.16061 0.35695,-0.0981 0.35866,0.32798 0.001,0.28953 -0.10701,0.70128 -0.24051,0.91498 -0.21314,0.34135 -0.23318,0.32204 -0.16489,-0.15863 0.0764,-0.53799 0.0706,-0.53718 -0.34687,0.0475 -0.23356,0.32707 -0.53551,0.70361 -0.67105,0.83677 -0.28101,0.27606 -2.33743,0.20871 -2.28984,-0.0751 0.0573,-0.34447 -0.93937,-1.81834 -1.14486,-1.69234 -0.11182,0.0686 -0.12424,0.0311 -0.0276,-0.0832 0.0967,-0.11434 0.079,-0.52218 -0.0393,-0.90617 -0.281,-0.91202 -0.29476,-1.34069 -0.0936,-2.91478 0.31356,-2.45304 2.07023,-4.34313 4.16048,-4.47645 0.78774,-0.0502 1.08302,0.0382 1.82312,0.54599 0.48574,0.33327 0.94254,0.56527 1.01512,0.51555 0.0726,-0.0497 0.0958,-0.12242 0.0517,-0.16158 -0.92238,-0.81767 -1.48092,-1.11958 -2.38361,-1.2884 -0.9496,-0.17759 -1.21335,-0.11927 -2.24917,0.49728 -0.79911,0.47564 -1.15303,0.58938 -1.10948,0.35655 0.0352,-0.18804 0.66761,-0.59801 1.40544,-0.91104 1.26432,-0.53641 1.41527,-0.54832 2.62352,-0.20701 1.03309,0.29178 1.33206,0.30212 1.53982,0.053 0.23342,-0.2799 0.30634,-0.26256 0.77094,0.18336 0.28222,0.27088 0.57576,0.44963 0.65229,0.3972 0.19683,-0.1348 1.27438,0.73906 1.22657,0.9947 -0.0571,0.30567 -0.43046,0.18895 -0.47703,-0.14913 -0.029,-0.21122 -0.14644,-0.21295 -0.44779,-0.007 -0.37267,0.25524 -0.34285,0.38305 0.34136,1.46243 0.5844,0.92197 0.79936,1.60439 0.97494,3.09514 0.12389,1.05184 0.20345,2.02904 0.1768,2.17153 -0.0267,0.14249 0.0329,0.27436 0.13245,0.29297 0.25233,0.0472 0.37024,-0.65875 0.17292,-1.03499 -0.0899,-0.1713 -0.10601,-0.30071 -0.036,-0.28761 0.0701,0.0131 0.0207,-0.45108 -0.10866,-1.03148 -0.22202,-0.99252 -0.17903,-1.14953 0.26778,-0.97813 0.17706,0.0679 0.18581,-0.22192 0.0364,-1.21199 -0.0687,-0.45591 -0.0659,-0.45558 0.19486,0.0233 0.29927,0.54936 0.24156,1.19947 -0.11882,1.33871 -0.15343,0.0593 -0.17111,0.32678 -0.0485,0.73446 0.26245,0.87307 0.36697,2.40117 0.22818,3.33647 -0.0631,0.425 -0.0265,0.78935 0.0819,0.80958 0.22944,0.0429 0.38419,-1.97812 0.21906,-2.8618 -0.0618,-0.33061 -0.11666,-0.7536 -0.12198,-0.93998 -0.005,-0.18637 -0.0454,-0.5225 -0.0891,-0.74695 -0.0459,-0.23589 0.0191,-0.38963 0.15412,-0.3644 0.12844,0.024 0.21174,-0.13735 0.18511,-0.3586 -0.1054,-0.87588 0.53234,0.62314 0.95917,2.25456 0.59806,2.28585 0.27198,2.38472 -0.36687,0.11124 -0.57518,-2.04687 -0.77271,-2.23298 -0.31665,-0.29834 0.16087,0.68242 0.29322,1.2915 0.29413,1.35344 0.001,0.062 0.0252,0.26874 0.0539,0.45949 0.0288,0.19076 0.0895,0.70771 0.13484,1.14873 0.0623,0.60579 0.0911,0.65103 0.11752,0.18515 0.0193,-0.33921 0.12137,-0.65007 0.22686,-0.69086 0.28983,-0.11199 0.29292,2.33531 0.005,3.99732 -0.13998,0.8078 -0.18114,1.48263 -0.0917,1.49961 0.0895,0.017 0.14413,0.13051 0.12136,0.25222 -0.0228,0.12172 -0.27737,0.13141 -0.56577,0.0215 -0.42236,-0.16099 -0.54087,-0.11165 -0.6092,0.2537 -0.0467,0.24952 -0.39516,0.73378 -0.77444,1.07615 -0.37929,0.34238 -0.61109,0.63569 -0.51512,0.65172 0.30363,0.0507 0.69249,-0.19 0.91915,-0.56919 0.12495,-0.20901 0.31362,-0.28043 0.4391,-0.16623 0.20295,0.18476 -1.94834,1.75521 -3.28715,2.39969 -0.47979,0.23092 -0.48065,0.22697 -0.0302,-0.13881 0.58249,-0.47304 0.62692,-0.6748 0.12842,-0.58329 -0.42518,0.078 -0.25053,-0.21199 0.48129,-0.79925 0.21933,-0.17599 0.34551,-0.39782 0.28038,-0.49291 -0.0652,-0.0951 -0.30531,-0.0129 -0.53372,0.18247 -0.46284,0.39601 -0.4191,0.29856 0.37396,-0.83302 0.67889,-0.96868 0.90059,-1.43691 1.10488,-2.33353 0.0878,-0.38523 0.24648,-0.68419 0.35268,-0.66433 0.27946,0.0522 -0.38488,2.03622 -0.90562,2.70413 -0.40038,0.51361 -0.41421,0.61007 -0.14473,1.00992 0.28003,0.41545 0.27193,0.45472 -0.13474,0.65303 -0.53069,0.2588 -0.59145,0.46883 -0.15896,0.54972 0.17912,0.0334 0.35155,-0.0775 0.38319,-0.2467 0.0316,-0.16918 0.1903,-0.34172 0.35259,-0.38346 0.23404,-0.0602 0.24427,-0.11235 0.0492,-0.25219 -0.17547,-0.1259 -0.0519,-0.35118 0.43257,-0.7885 0.42999,-0.38816 0.65744,-0.77083 0.62147,-1.04549 -0.0468,-0.35729 -0.0264,-0.36846 0.11659,-0.0637 0.14985,0.31938 0.18345,0.31804 0.24773,-0.01 0.041,-0.20857 -0.0233,-0.39756 -0.14273,-0.4199 -0.11941,-0.0223 -0.20055,-0.12917 -0.18031,-0.2374 0.0202,-0.10821 0.20298,-0.13913 0.40607,-0.0686 0.2031,0.0704 0.25151,0.0618 0.10753,-0.019 -0.36975,-0.20785 0.28615,-3.15433 0.68554,-3.07963 0.15519,0.029 0.31108,-0.10193 0.34644,-0.29101 0.0354,-0.18906 -0.0657,-0.32437 -0.22465,-0.30068 -0.15995,0.0238 -0.35297,-0.27976 -0.43242,-0.6801 -0.1401,-0.70599 -0.14512,-0.69947 -0.21183,0.27527 -0.0663,0.96829 -0.0751,0.98017 -0.29418,0.39439 -0.21903,-0.58579 -0.22991,-0.56718 -0.34799,0.49667 -0.17196,1.54917 -0.14561,1.65025 0.21551,0.82677 0.19708,-0.44941 0.1154,0.13576 -0.21394,1.53291 -0.44557,1.89021 -0.61735,2.3174 -1.05032,2.61235 l -0.51762,0.35259 0.37181,-0.60457 c 0.62356,-1.01392 1.16466,-2.84188 0.89102,-3.01014 -0.13167,-0.0809 -0.17179,-0.61012 -0.0891,-1.17594 0.0826,-0.56582 0.14426,-1.18152 0.13692,-1.36827 -0.007,-0.18675 -0.0275,-0.6708 -0.0447,-1.07571 -0.0172,-0.40491 -0.1118,-0.75118 -0.21008,-0.76956 -0.0983,-0.0184 -0.13246,0.27147 -0.0759,0.64405 0.0566,0.37261 0.0182,0.94687 -0.0853,1.2761 -0.13848,0.44075 -0.20841,0.15913 -0.26512,-1.068 -0.0424,-0.91659 -0.006,-1.7441 0.0798,-1.83884 0.0863,-0.0947 0.0533,-0.19163 -0.0731,-0.21528 -0.12647,-0.0237 -0.16705,-0.37919 -0.0902,-0.79007 0.0769,-0.41089 0.0629,-0.81702 -0.031,-0.9025 -0.0939,-0.0856 -0.18762,-0.43184 -0.20827,-0.76969 -0.0487,-0.79681 -1.50155,-3.53613 -2.15257,-4.05859 -0.72096,-0.5786 -0.91485,-0.30498 -0.21653,0.30558 0.32022,0.27998 0.51802,0.57961 0.43953,0.66584 -0.0785,0.0863 0.01,0.18527 0.19575,0.22009 0.18616,0.0348 0.32562,0.13679 0.30991,0.22648 -0.0157,0.0897 0.22379,0.56633 0.53223,1.05905 0.30844,0.49272 0.57185,1.04757 0.58536,1.23299 0.0135,0.18542 0.078,0.95851 0.14337,1.71797 0.0653,0.75946 0.0623,1.48273 -0.007,1.60723 -0.069,0.12453 -0.0346,0.30919 0.0765,0.41037 0.11119,0.10121 0.18272,0.28792 0.15897,0.41491 -0.0272,0.14558 -0.1448,0.10855 -0.31829,-0.10028 -0.15132,-0.18214 -0.24658,-0.48376 -0.2117,-0.67026 0.0348,-0.18651 -0.0638,-0.82455 -0.21919,-1.41788 -0.15544,-0.59332 -0.33057,-1.28999 -0.38918,-1.54811 -0.0996,-0.43887 -0.0935,-0.4401 0.0947,-0.019 0.56607,1.26668 0.59227,1.30074 0.53792,0.69907 -0.0284,-0.31428 -0.13541,-0.78932 -0.23783,-1.05564 -0.15318,-0.39834 -0.232,-0.43664 -0.44442,-0.21584 -0.31134,0.32361 -0.23672,1.00411 0.3352,3.05732 0.0631,0.2264 0.0831,0.58026 0.0445,0.78637 -0.0386,0.2061 0.13741,0.61955 0.39101,0.91879 0.32736,0.38624 0.44491,0.85065 0.40525,1.60096 -0.0344,0.65332 -0.13919,1.04131 -0.27415,1.01608 -0.12009,-0.0224 -0.1857,-0.21169 -0.14581,-0.4205 0.21535,-1.12976 0.20285,-1.59437 -0.0552,-1.97114 -0.15717,-0.22949 -0.35559,-0.36942 -0.44092,-0.31098 -0.0852,0.0584 -0.0352,0.21538 0.11119,0.34867 0.35864,0.32644 -0.12694,3.2691 -0.51373,3.11359 -0.14367,-0.0577 -0.2795,-0.007 -0.30183,0.11209 -0.0223,0.11941 0.0571,0.23538 0.1765,0.2577 0.11941,0.0223 0.17881,0.24538 0.132,0.49568 -0.11531,0.61645 -1.18049,2.72051 -1.52867,3.01956 -0.15439,0.13258 -0.18529,0.22792 -0.0686,0.21187 0.21008,-0.029 0.29102,0.14914 0.22595,0.49705 -0.0398,0.21297 -1.92988,1.10729 -2.56166,1.21212 -0.37219,0.0618 -0.38769,0.0305 -0.10239,-0.20653 z m 7.72545,-4.23409 c 0.005,-0.2154 0.10118,-0.4922 0.21483,-0.61509 0.11343,-0.12293 0.15953,-0.48307 0.10227,-0.80039 -0.0572,-0.31732 -0.0341,-0.62483 0.0513,-0.68338 0.0855,-0.0586 0.0414,-0.12771 -0.0979,-0.15377 -0.31109,-0.0582 -0.48535,0.7277 -0.21576,0.97309 0.10734,0.0977 0.12066,0.25947 0.0296,0.35951 -0.091,0.10004 -0.25719,0.0984 -0.3692,-0.004 -0.12244,-0.1115 -0.17167,-0.055 -0.12346,0.14179 0.0441,0.17994 0.1085,0.50939 0.14314,0.73214 0.0346,0.22276 0.10655,0.41316 0.15984,0.42312 0.0533,0.0104 0.10083,-0.15809 0.10541,-0.3735 z m -3.37286,-9.99159 c 0.15433,-0.0965 0.0849,-0.13023 -0.17984,-0.0872 -0.32025,0.052 -0.38415,-0.007 -0.24814,-0.22792 0.10718,-0.17434 -0.0422,-0.62703 -0.36006,-1.09113 -0.6851,-1.00032 -0.91688,-0.88483 -0.39225,0.19545 0.21887,0.45071 0.43048,1.02495 0.47023,1.27609 0.0405,0.25582 0.1572,0.37647 0.26541,0.27434 0.10625,-0.10026 0.30632,-0.25307 0.44464,-0.33958 z m 0.10503,-2.8095 c 0.057,0.0105 0.0654,-0.0794 0.0188,-0.2001 -0.0466,-0.1207 -0.27808,-0.20574 -0.51432,-0.18896 -0.23624,0.0168 -0.47529,-0.088 -0.53127,-0.2328 -0.056,-0.14472 -0.21849,-0.2829 -0.3612,-0.30685 -0.14276,-0.0236 -0.051,0.19365 0.20371,0.48353 0.25477,0.28986 0.60212,0.50425 0.77192,0.47641 0.16981,-0.0279 0.35536,-0.0419 0.41233,-0.0312 z m -6.19653,16.14321 c -0.0515,-0.1332 0.10754,-0.20456 0.35345,-0.15857 0.24587,0.046 0.42876,0.18131 0.40644,0.30068 -0.0223,0.1194 -0.18139,0.19078 -0.35346,0.1586 -0.17207,-0.0322 -0.35495,-0.1675 -0.40643,-0.30071 z m 6.85418,1.17467 c 0.18493,-0.15365 0.47082,-0.25415 0.63532,-0.22339 0.16449,0.0308 0.29093,-0.0358 0.28098,-0.14772 -0.0188,-0.21193 1.08372,-0.94527 1.34712,-0.89601 0.26812,0.0502 -1.70813,1.39729 -2.16092,1.47303 -0.3723,0.0623 -0.38783,0.0311 -0.1025,-0.20591 z m -7.8644,-1.82714 c -0.13999,-0.36232 -0.0694,-0.37686 1.23604,-0.25458 1.25278,0.1173 1.42828,0.22185 0.60654,0.36129 -1.08787,0.18455 -1.74474,0.14652 -1.84258,-0.10668 z m -1.30917,-0.4624 c -0.24849,-0.15823 -0.44206,-0.33971 -0.43018,-0.40326 0.0446,-0.23847 0.82068,0.0463 1.16889,0.42893 0.42228,0.46398 0.008,0.4496 -0.7387,-0.0261 z m -1.21763,-1.00964 c -0.22694,-0.40778 0.0164,-0.43854 0.42941,-0.0542 0.15772,0.14683 0.16519,0.27823 0.019,0.33468 -0.13235,0.0512 -0.33415,-0.0751 -0.44846,-0.28048 z m 1.40811,0.27952 c -0.32889,-0.21728 -0.87203,-0.73004 -1.20695,-1.13949 -0.36596,-0.44736 -0.61457,-0.61943 -0.62302,-0.43116 -0.007,0.17231 -0.0598,0.49406 -0.11587,0.71499 -0.0856,0.33766 -0.14703,0.34723 -0.38555,0.0601 -0.21171,-0.25487 -0.20985,-0.37021 0.008,-0.4541 0.20388,-0.0787 0.14048,-0.3154 -0.21153,-0.7897 -0.27645,-0.37244 -0.43245,-0.66406 -0.34663,-0.64801 0.0858,0.016 -0.005,-0.27902 -0.20202,-0.65571 -0.301,-0.57579 -0.73321,-2.06505 -0.68074,-2.3456 0.008,-0.0451 0.11117,-0.064 0.2283,-0.0422 0.11714,0.0219 0.22904,0.30285 0.24868,0.62432 0.0197,0.32145 0.28477,1.15469 0.58915,1.85162 0.68508,1.56853 0.64262,1.49861 0.83127,1.36939 0.0864,-0.0591 -0.0696,-0.63086 -0.34669,-1.27047 -0.64029,-1.47803 -0.99901,-3.18849 -0.65525,-3.12419 0.0968,0.0181 0.40836,1.25106 0.44703,1.76884 0.009,0.12535 0.15318,0.52177 0.31959,0.88093 0.16642,0.35916 0.29039,0.71819 0.27549,0.79785 -0.0512,0.27386 0.49994,0.91392 0.71532,0.83071 0.11857,-0.0457 0.42603,0.15689 0.68321,0.45049 0.50713,0.57891 0.9182,0.74914 0.98223,0.40675 0.0454,-0.24246 0.79934,-0.0345 1.00947,0.27842 0.0749,0.11168 -0.053,0.13415 -0.28443,0.0499 -0.23141,-0.0841 -0.43873,-0.057 -0.46068,0.0604 -0.0426,0.22805 0.0289,0.26397 1.02713,0.51531 0.56081,0.1412 0.58331,0.17573 0.17468,0.26752 -0.39312,0.0883 -0.35528,0.12921 0.23363,0.2526 0.38643,0.0814 0.68303,0.25265 0.65893,0.38158 -0.0518,0.27677 -1.37773,-0.22063 -1.43481,-0.53824 -0.0202,-0.11231 -0.24868,-0.24232 -0.50773,-0.28889 -0.34721,-0.0619 -0.40272,-0.021 -0.21137,0.15711 0.44731,0.41642 -0.13094,0.42322 -0.75816,0.009 z m 0.49446,-0.25147 c 0.14313,-0.15724 -0.2109,-0.4755 -1.53529,-1.38026 -0.1096,-0.0748 -0.0132,0.1623 0.21498,0.52704 0.22783,0.36472 0.49985,0.63004 0.60448,0.58961 0.10462,-0.0405 0.23303,0.0374 0.28537,0.17264 0.11877,0.30737 0.21496,0.32772 0.43046,0.091 z m 3.96029,0.81704 c 0.43997,-0.22858 0.82725,-0.56165 0.86064,-0.74017 0.0405,-0.21696 0.18593,-0.25742 0.43844,-0.12198 0.29275,0.15699 0.45883,0.0524 0.73809,-0.46477 0.29485,-0.54605 0.3474,-0.57581 0.28913,-0.16388 -0.0392,0.27687 -0.25713,0.74193 -0.48438,1.03344 -0.50888,0.65281 -1.50039,1.29144 -1.43128,0.9219 0.0293,-0.15654 -0.0737,-0.21532 -0.25379,-0.14483 -0.7556,0.29613 -0.87473,0.0533 -0.15685,-0.31971 z m 1.21513,-0.19303 c 0.36974,-0.34656 0.36704,-0.35764 -0.036,-0.14774 -0.23962,0.12479 -0.45475,0.32894 -0.47807,0.45362 -0.0233,0.12468 -0.007,0.19117 0.036,0.14774 0.0431,-0.0434 0.25822,-0.24758 0.47806,-0.45362 z m 1.34125,0.6842 c -0.0212,-0.34781 0.0812,-0.69918 0.2342,-0.80405 0.14959,-0.10247 0.32007,-0.43516 0.37885,-0.73931 0.0589,-0.30412 0.22894,-0.68184 0.37822,-0.83931 0.46633,-0.49199 0.0888,0.94436 -0.41781,1.58971 -0.35784,0.4558 -0.3997,0.6179 -0.20531,0.79487 0.17956,0.16346 0.16816,0.27437 -0.0431,0.41906 -0.21127,0.14469 -0.29731,0.0333 -0.32506,-0.42096 z m -3.83811,-0.5894 c 0.0223,-0.11942 -0.085,-0.2406 -0.23855,-0.26931 -0.3304,-0.0618 -0.22218,-0.92475 0.11436,-0.91167 l 0.45404,0.0178 c 0.50408,0.0211 1.32196,-0.46032 1.38866,-0.81696 0.0822,-0.43963 0.36457,-0.43156 0.93567,0.0273 0.29283,0.23501 0.3735,0.24973 0.29835,0.0528 -0.11093,-0.28717 0.59031,-1.67385 0.99599,-1.96955 0.15737,-0.11468 0.17643,-0.0588 0.0532,0.15575 -0.10572,0.18398 -0.42374,0.91569 -0.70675,1.62605 -0.28567,0.71698 -0.56375,1.16422 -0.62514,1.00538 -0.0846,-0.21891 -0.15882,-0.23315 -0.31562,-0.0621 -0.11294,0.12409 -0.32227,0.15371 -0.46517,0.0659 -0.14289,-0.0878 -0.51397,0.001 -0.82464,0.19844 -0.42337,0.2685 -0.594,0.28269 -0.68129,0.0568 -0.0827,-0.21409 -0.17247,-0.23981 -0.30989,-0.0889 -0.10643,0.11702 -0.11082,0.2281 -0.009,0.247 0.10105,0.0189 0.1619,0.23251 0.13522,0.47471 -0.0267,0.24218 -0.0913,0.43231 -0.14352,0.42255 -0.0523,-0.009 -0.0768,-0.11548 -0.0544,-0.23488 z m 2.44797,-1.83866 c -0.0565,-0.14618 -0.18787,-0.1387 -0.33469,0.019 -0.38433,0.41285 -0.35359,0.65638 0.0542,0.42942 0.2054,-0.11428 0.33161,-0.31611 0.28048,-0.44843 z m -1.98894,1.78716 c 0.03,-0.16022 1.10487,-0.76234 1.30985,-0.73372 0.0865,0.0122 0.0813,0.14566 -0.0117,0.29694 -0.16916,0.27508 -1.34168,0.66963 -1.29814,0.43678 z m -1.70783,-1.08085 c -0.0515,-0.13324 0.004,-0.22395 0.12357,-0.20161 0.11941,0.0223 0.25921,0.14961 0.31069,0.28282 0.0515,0.13322 -0.004,0.22393 -0.12357,0.20159 -0.11941,-0.0223 -0.25922,-0.1496 -0.31069,-0.2828 z m 5.96568,1.14233 c 0.0223,-0.11943 0.14961,-0.25922 0.2828,-0.31067 0.13322,-0.0515 0.22394,0.004 0.20159,0.12356 -0.0223,0.11942 -0.1496,0.2592 -0.28279,0.31068 -0.13322,0.0515 -0.22394,-0.004 -0.2016,-0.12357 z m -12.52423,-2.7191 c 0.0348,-0.18616 0.14973,-0.25983 0.25532,-0.16368 0.1056,0.0962 0.17482,0.26671 0.15381,0.37906 -0.021,0.11235 -0.13592,0.18604 -0.25532,0.16371 -0.11941,-0.0223 -0.18862,-0.19293 -0.15381,-0.37909 z m 1.41626,0.0735 c -1.34654,-2.76823 -1.63164,-3.58341 -1.2269,-3.50772 0.11007,0.0206 0.30206,0.4357 0.42667,0.92243 0.12461,0.48675 0.27191,0.94405 0.32735,1.01622 0.31026,0.40383 1.00719,2.03225 0.90092,2.10503 -0.0691,0.0473 -0.26164,-0.1939 -0.42804,-0.53596 z m 14.87827,3.00584 c 0.033,-0.23068 0.10869,-0.34928 0.16733,-0.26361 0.0587,0.0857 0.0313,0.27433 -0.0607,0.41932 -0.10168,0.16021 -0.14351,0.0992 -0.10663,-0.15571 z m -11.872,-2.6859 c -0.11432,-0.20539 -0.30448,-0.33613 -0.4226,-0.29051 -0.11811,0.0457 -0.18627,-0.0694 -0.15145,-0.25547 0.083,-0.44384 0.11993,-0.42644 0.74223,0.34998 0.29114,0.36327 0.41917,0.63999 0.28451,0.61496 -0.13468,-0.025 -0.33839,-0.21358 -0.45269,-0.41896 z m 11.24255,2.35228 c 0.008,-0.0451 0.18721,-0.17763 0.39728,-0.29455 0.31937,-0.17772 0.34862,-0.15834 0.17855,0.11824 -0.17369,0.28247 -0.62131,0.41953 -0.57583,0.17629 z m -2.64786,-1.02829 c 0.47617,-0.95972 0.90104,-2.63519 0.64296,-2.53549 -0.14804,0.0572 -0.324,0.39711 -0.391,0.75532 -0.067,0.35822 -0.19144,0.58795 -0.27662,0.5104 -0.26252,-0.23894 0.28588,-1.65867 0.61673,-1.59679 0.16606,0.031 0.33847,-0.13896 0.38312,-0.37776 0.0447,-0.2388 0.16161,-0.41919 0.25995,-0.40079 0.17416,0.0325 -0.20517,1.87112 -0.55796,2.70442 -0.097,0.22904 -0.22489,0.63486 -0.28427,0.90183 -0.0591,0.26702 -0.21226,0.46587 -0.33971,0.44204 -0.12746,-0.0238 -0.1514,-0.20526 -0.0532,-0.40318 z m -13.43185,-2.6902 c -0.0362,-0.19751 -0.008,-0.3985 0.0621,-0.4467 0.0704,-0.0482 0.14279,0.12142 0.16095,0.37683 0.0386,0.54267 -0.12673,0.59443 -0.223,0.0699 z m 0.72616,0.10805 c -0.0648,-0.0945 -0.0988,-0.27273 -0.0758,-0.39614 0.0254,-0.13604 0.12416,-0.10432 0.25083,0.0805 0.11488,0.16776 0.14894,0.34602 0.0758,0.39617 -0.0733,0.0502 -0.18611,0.0139 -0.2508,-0.0807 z m 2.44869,-1.01013 c -0.2314,-0.56237 -0.3909,-1.18203 -0.35444,-1.37704 0.0365,-0.19501 0.0111,-0.43524 -0.0565,-0.53386 -0.0676,-0.0986 -0.11648,-0.34005 -0.10879,-0.53656 0.0215,-0.55981 0.2343,-0.0318 0.55317,1.37518 0.16085,0.70981 0.44934,1.49685 0.64106,1.74899 0.24506,0.32226 0.25915,0.4417 0.0474,0.4021 -0.16566,-0.031 -0.49053,-0.51644 -0.72195,-1.07881 z m -2.91966,-0.27636 c -0.0515,-0.13319 0.01,-0.22284 0.13634,-0.19919 0.12646,0.0237 0.21166,0.1407 0.18933,0.2601 -0.0223,0.1194 -0.0836,0.20907 -0.13635,0.19922 -0.0527,-0.009 -0.13784,-0.12691 -0.18931,-0.26013 z m 17.06096,3.09161 c 0.0713,-0.38135 0.21211,-0.41313 0.3419,-0.0772 0.0479,0.12402 -0.0237,0.26829 -0.15904,0.32057 -0.13538,0.0523 -0.2177,-0.0571 -0.18286,-0.24337 z m -17.62461,-3.63089 c -0.0479,-0.12401 0.0237,-0.26828 0.15904,-0.32056 0.13539,-0.0523 0.21769,0.0571 0.18285,0.24337 -0.0713,0.38135 -0.21209,0.41314 -0.34189,0.0772 z m 6.66916,0.9605 c -1.14593,-0.7048 -1.5642,-1.27816 -2.0885,-2.86308 -0.17109,-0.51718 -0.39205,-0.84449 -0.49427,-0.7322 -0.31259,0.3434 -0.54271,0.16353 -0.54507,-0.42605 -9.9e-4,-0.30921 0.082,-0.54643 0.18476,-0.5272 0.10285,0.0193 0.1596,0.18152 0.1261,0.36064 -0.0335,0.17911 0.0368,0.34393 0.1562,0.36626 0.27514,0.0515 0.36419,-0.413 0.22657,-1.17885 -0.0591,-0.3281 -0.25841,-0.62473 -0.44275,-0.65921 -0.25637,-0.048 -0.27452,-0.19663 -0.0772,-0.63238 0.1419,-0.31331 0.3466,-0.5868 0.45498,-0.60773 0.31937,-0.0616 0.29773,-0.43117 -0.0288,-0.49225 -0.3146,-0.0589 -0.67915,0.53186 -0.83919,1.35979 -0.0522,0.26832 -0.19141,0.46978 -0.31007,0.44759 -0.11866,-0.0222 -0.15116,-0.20521 -0.0722,-0.40673 0.68686,-1.75309 0.77018,-1.88008 1.12399,-1.71323 0.20777,0.098 0.38415,0.0486 0.41695,-0.11684 0.0915,-0.46225 1.45342,-2.38485 1.6616,-2.34591 0.28969,0.0542 0.1618,0.39288 -0.23087,0.61142 -0.32015,0.17817 -1.03797,1.64928 -0.89151,1.82711 0.0345,0.0418 -0.10119,0.14133 -0.30151,0.22106 -0.20812,0.0828 -0.2556,0.16673 -0.11078,0.19579 0.14479,0.0291 0.18698,0.34822 0.0969,0.75185 -0.61641,2.76179 0.59433,5.71634 2.66789,6.51046 0.45918,0.17592 0.84966,0.26023 0.86769,0.18761 0.0777,-0.31329 1.28817,-1.1627 1.36683,-0.95914 0.0477,0.1234 -0.20531,0.44095 -0.56215,0.70566 -0.35687,0.26471 -0.57191,0.49728 -0.47785,0.51675 0.0938,0.0206 0.006,0.10268 -0.19403,0.18497 -0.45993,0.18843 -0.37696,0.21732 -1.68307,-0.58598 z m -2.45381,-6.53564 c -0.0324,-0.16052 -0.10445,-0.0476 -0.16027,0.2509 -0.0559,0.29852 -0.0294,0.42985 0.0588,0.29186 0.0882,-0.13798 0.13385,-0.38223 0.1015,-0.54276 z m -4.32106,4.32041 c -0.13861,-0.76856 -0.0606,-1.26371 0.19179,-1.21652 0.1988,0.0372 0.23067,1.63359 0.0353,1.7674 -0.0625,0.0428 -0.16472,-0.20507 -0.22709,-0.55088 z m 10.75796,2.16759 c -0.13241,-0.39145 0.45604,-1.77218 0.73318,-1.72035 0.20895,0.0391 0.21073,0.20708 0.007,0.61916 -0.1541,0.31103 -0.26238,0.68599 -0.24067,0.83322 0.0452,0.30588 -0.40459,0.54738 -0.49912,0.26796 z m 7.36751,1.26183 c -0.0515,-0.4337 -0.061,-2.04426 -0.0144,-2.41824 0.0683,-0.54719 -0.28525,-2.79411 -0.62709,-3.98586 -0.17667,-0.61593 -0.6683,-1.69713 -1.09251,-2.40267 -0.42421,-0.70553 -0.7453,-1.40096 -0.71355,-1.54537 0.032,-0.14436 0.40027,0.30706 0.8189,1.00328 0.41865,0.69623 0.78495,1.14988 0.814,1.00813 0.0296,-0.14167 -0.0335,-0.33638 -0.13919,-0.43252 -0.1056,-0.0962 -0.17258,-0.27868 -0.14884,-0.40567 0.0272,-0.14559 0.14482,-0.10854 0.3183,0.10038 0.15131,0.18214 0.24887,0.47152 0.21678,0.64306 -0.0321,0.17155 0.0331,0.27659 0.1448,0.23341 0.11174,-0.0432 0.34822,0.349 0.52552,0.87148 0.17729,0.52247 0.3973,0.96397 0.4889,0.9811 0.0916,0.0171 0.2504,0.29617 0.35292,0.62009 0.10251,0.32392 0.29581,0.54668 0.42951,0.49502 0.13372,-0.0517 0.16634,-0.01 0.0725,0.0935 -0.0938,0.10309 -0.0836,0.47452 0.0223,0.82535 0.10613,0.35085 0.098,0.62013 -0.0185,0.59841 -0.11607,-0.0217 -0.23987,-0.22181 -0.27509,-0.44468 -0.0871,-0.5508 -1.83258,-4.02601 -1.97366,-3.92939 -0.0619,0.0424 0.0256,0.38906 0.19468,0.77026 0.16905,0.38118 0.42138,0.99569 0.56073,1.36555 0.13937,0.36987 0.3414,0.63847 0.44898,0.59691 0.10756,-0.0415 0.24155,0.35945 0.29771,0.89116 0.0561,0.5317 0.2,1.0593 0.31967,1.17247 0.15565,0.14723 0.13882,0.19204 -0.0592,0.15747 -0.25729,-0.0451 -0.40421,-0.46369 -0.53799,-1.53373 -0.03,-0.23956 -0.10988,-0.39761 -0.1776,-0.35123 -0.0676,0.0464 -0.0687,0.8949 -0.002,1.88557 0.0666,0.99068 0.0849,2.17365 0.0406,2.62883 -0.0794,0.81662 -0.22127,1.06725 -0.28766,0.50796 z m -17.33051,-3.34089 c -0.0621,-0.0906 -0.0733,-0.36806 -0.0249,-0.6165 0.0727,-0.37238 0.11478,-0.38748 0.2408,-0.086 0.12665,0.30293 0.19357,0.28176 0.3901,-0.12327 l 0.23724,-0.48891 0.18929,0.56868 c 0.23049,0.6924 0.21185,0.90996 -0.0733,0.85662 -0.1194,-0.0223 -0.18862,-0.19293 -0.1538,-0.37909 0.0348,-0.18616 -0.0475,-0.29567 -0.18286,-0.24337 -0.13538,0.0523 -0.20987,0.18904 -0.16551,0.30385 0.0988,0.25575 -0.29994,0.43729 -0.45696,0.20802 z m 10.95125,1.28561 c -0.056,-0.14486 0.0214,-0.34767 0.17199,-0.45076 0.1931,-0.13225 0.23764,-0.052 0.15129,0.27256 -0.13935,0.5237 -0.18087,0.54659 -0.32323,0.17821 z m -9.44254,-1.80254 c -0.0354,-0.31455 -0.0347,-1.05932 0.001,-1.46015 0.0247,-0.27339 -0.004,-0.50632 -0.0637,-0.51762 -0.0596,-0.0115 0.008,-0.80769 0.14996,-1.76974 0.14218,-0.96205 0.33712,-1.73406 0.43321,-1.71562 0.0961,0.0185 0.0669,0.71234 -0.0649,1.54198 -0.21138,1.33044 -0.22233,2.687 -0.0302,3.73391 0.0337,0.18398 -0.0468,0.3143 -0.17896,0.28957 -0.13219,-0.0247 -0.24322,-0.0708 -0.2468,-0.10233 z m -0.88247,-1.40091 c -0.009,-0.21797 0.11156,-0.72629 0.26782,-1.12961 0.15785,-0.40723 0.2586,-0.52578 0.22655,-0.26658 -0.0318,0.25667 -0.0537,0.78341 -0.0488,1.17051 0.009,0.73322 -0.4155,0.94833 -0.44549,0.22568 z m 1.62682,0.13669 c -0.0803,-0.32451 -0.0619,-0.57425 0.0411,-0.555 0.18028,0.0337 0.33852,0.98505 0.18172,1.09246 -0.0423,0.0289 -0.14249,-0.21293 -0.22281,-0.53745 z m -2.92969,-0.51106 c -0.12688,-0.66032 -0.0286,-0.96717 0.20187,-0.63061 0.10618,0.15504 0.12267,0.45642 0.0367,0.66972 -0.15084,0.37409 -0.15933,0.37269 -0.2384,-0.0395 z m 0.68449,0.42726 c -0.0124,-0.064 -0.004,-0.51752 0.0191,-1.00758 0.0317,-0.67525 0.0921,-0.82049 0.24939,-0.59985 0.11418,0.16011 0.10555,0.61353 -0.0191,1.00755 -0.12476,0.39402 -0.23694,0.66402 -0.2494,0.59988 z m -1.43104,-0.81067 c 0.033,-0.23071 0.10868,-0.34926 0.16732,-0.26362 0.0587,0.0857 0.0313,0.27432 -0.0607,0.41932 -0.10169,0.16023 -0.14353,0.0992 -0.10665,-0.15571 z m 7.73771,1.27096 c -0.15366,-0.33849 -0.15441,-0.57543 -0.002,-0.63432 0.1338,-0.0516 0.26129,-0.33621 0.2833,-0.63225 0.0295,-0.39798 0.13186,-0.50488 0.39236,-0.41021 0.19378,0.0704 0.44524,0.0259 0.55876,-0.0987 0.13,-0.14281 0.10227,-0.18653 -0.0749,-0.11806 -0.43865,0.16946 -0.46529,-0.59464 -0.0393,-1.12555 0.49787,-0.62039 0.64695,-0.56857 0.8859,0.30794 0.29452,1.08039 -0.37812,3.50978 -0.94254,3.40422 -0.11842,-0.0222 -0.14298,-0.11972 -0.0546,-0.21679 0.17586,-0.19319 -0.27538,-0.96843 -0.59889,-1.02894 -0.32555,-0.0609 -0.31263,0.39337 0.017,0.59601 0.16626,0.10225 0.28598,0.27313 0.26604,0.37976 -0.0663,0.35475 -0.44263,0.12444 -0.69115,-0.42304 z m 1.70422,-1.66348 c 0.13401,-1.50009 -0.0637,-1.7908 -0.56626,-0.83267 -0.19058,0.36332 -0.16485,0.44519 0.12342,0.39228 0.26922,-0.0494 0.33838,0.0714 0.26516,0.46296 -0.13255,0.70874 -0.36202,0.8303 -0.68291,0.36176 -0.3143,-0.45886 -0.50095,-0.39469 -0.40307,0.13858 0.0395,0.2147 0.31008,0.42719 0.61735,0.48466 0.52609,0.0984 0.55098,0.0596 0.64631,-1.00757 z m 9.97792,4.19288 c -0.0648,-0.0945 -0.0988,-0.27275 -0.0758,-0.39614 0.0254,-0.13604 0.12418,-0.1043 0.25084,0.0806 0.11486,0.16775 0.14893,0.34601 0.0757,0.39616 -0.0733,0.0502 -0.18611,0.0139 -0.25081,-0.0807 z M 105.0481,123.3905 c 0.0713,-0.38137 0.21209,-0.41316 0.34188,-0.0772 0.0479,0.124 -0.0237,0.26828 -0.15904,0.32058 -0.13538,0.0523 -0.21768,-0.0571 -0.18284,-0.24337 z m -2.72288,-1.06006 c 0.0757,-0.40499 0.21077,-0.62766 0.32031,-0.52798 0.20176,0.18367 0.0244,0.90246 -0.27288,1.10607 -0.0982,0.0672 -0.11952,-0.19293 -0.0474,-0.5781 z m 3.41961,0.93911 c 0.0348,-0.18616 0.14971,-0.25982 0.2553,-0.16368 0.10561,0.0962 0.17482,0.26671 0.15381,0.37909 -0.021,0.11237 -0.13591,0.18601 -0.25531,0.16368 -0.11942,-0.0223 -0.18862,-0.19293 -0.1538,-0.37909 z m 2.242,0.56411 c 0.0879,-0.0965 0.0647,-0.22839 -0.0514,-0.29287 -0.11622,-0.0644 -0.11389,-0.60354 0.005,-1.19791 0.11929,-0.59432 0.2555,-1.30087 0.30378,-1.56991 0.0473,-0.26923 0.18729,-0.47055 0.31006,-0.44759 0.13736,0.0257 0.096,0.55843 -0.1074,1.3843 -0.224,0.90941 -0.26005,1.51888 -0.11168,1.88909 0.1953,0.48742 0.17969,0.53919 -0.14444,0.47857 -0.1999,-0.0374 -0.29152,-0.14699 -0.2036,-0.24358 z m 0.72952,-0.0326 c -0.0648,-0.0945 -0.0858,-0.32593 -0.0468,-0.51432 0.0577,-0.2814 0.0988,-0.264 0.2272,0.0968 0.15859,0.44575 0.0349,0.73195 -0.18043,0.41755 z m -7.09795,-1.51896 c -0.0657,-0.0959 -0.0321,-0.31639 0.0747,-0.48998 0.14151,-0.2301 0.10159,-0.28356 -0.1471,-0.19727 -0.26504,0.092 -0.27345,0.0678 -0.0377,-0.10787 0.44914,-0.33471 0.69718,-0.0649 0.44765,0.48694 -0.12002,0.26535 -0.27188,0.40402 -0.33755,0.30814 z m 1.83078,0.14068 c 0.033,-0.23071 0.10869,-0.34928 0.16733,-0.26364 0.0587,0.0857 0.0313,0.27433 -0.0607,0.41931 -0.10169,0.16026 -0.14353,0.0992 -0.10666,-0.15568 z m 0.38332,-0.45263 c -0.0571,-0.22697 -0.0346,-0.83608 0.05,-1.3536 0.0925,-0.56579 0.043,-1.04404 -0.12422,-1.19949 -0.23077,-0.21453 -0.21333,-0.247 0.10248,-0.19079 0.34174,0.0609 0.52468,-0.15436 0.53822,-0.63307 0.003,-0.0922 0.11293,-0.14741 0.24508,-0.1227 0.1322,0.0247 0.15152,0.18941 0.0429,0.36596 -0.10861,0.17656 -0.30088,0.5462 -0.42736,0.82144 -0.18985,0.41309 -0.15985,0.48753 0.17201,0.42663 0.35444,-0.065 0.35954,-0.0209 0.0431,0.37338 -0.19738,0.24595 -0.367,0.78571 -0.37695,1.19946 -0.0196,0.83374 -0.10802,0.93749 -0.26531,0.31277 z m 4.83885,0.39938 c 0.0472,-0.42912 0.27635,-0.53394 0.48887,-0.22367 0.12676,0.18511 -0.18061,0.7307 -0.38968,0.6916 -0.0812,-0.0152 -0.12587,-0.22576 -0.0992,-0.46793 z m -6.69643,-1.81412 c 0.1113,-0.92098 0.29413,-1.48573 0.5374,-1.66047 0.11434,-0.0821 0.0735,0.31477 -0.0906,0.88187 -0.38341,1.32493 -0.54735,1.61059 -0.4468,0.77862 z m 1.23035,0.25981 c -0.0259,-0.35928 0.014,-0.69494 0.0884,-0.74592 0.20751,-0.14212 0.29045,0.59705 0.11467,1.02198 -0.11498,0.27809 -0.16837,0.20553 -0.20302,-0.27606 z m 1.94589,0.2219 c -0.0515,-0.13321 0.01,-0.22284 0.13634,-0.1992 0.12645,0.0237 0.21165,0.1407 0.18932,0.26011 -0.0223,0.11941 -0.0837,0.20905 -0.13634,0.1992 -0.0527,-0.009 -0.13785,-0.1269 -0.18932,-0.26011 z m -3.93771,-1.17256 c 0.021,-0.11236 0.14721,-0.24639 0.28041,-0.29787 0.13321,-0.0515 0.21374,0.0587 0.17891,0.2449 -0.0348,0.18617 -0.16101,0.3202 -0.28042,0.29787 -0.11941,-0.0223 -0.19992,-0.1325 -0.1789,-0.2449 z m 1.60576,-0.17561 c 0.0683,-0.36529 0.19906,-0.59603 0.29047,-0.5128 0.15468,0.1408 -0.14716,1.22696 -0.33143,1.1925 -0.0458,-0.008 -0.0274,-0.31443 0.0409,-0.6797 z m 2.16052,0.3424 c 0.0245,-0.67533 0.22721,-1.22583 0.64798,-1.7589 0.55982,-0.70906 0.61615,-0.85093 0.35711,-0.89937 -0.10025,-0.0187 -0.3587,0.21098 -0.57435,0.51052 -0.22331,0.31018 -0.41238,0.42083 -0.4392,0.25707 -0.0691,-0.42194 0.95222,-1.255 1.1624,-0.9481 0.11006,0.16069 0.31132,0.0743 0.56597,-0.24303 0.21733,-0.27082 0.47634,-0.4772 0.57556,-0.45865 0.28199,0.0527 0.14559,0.39453 -0.24394,0.61132 -0.48864,0.27194 -1.3246,1.46165 -1.57513,2.2417 -0.19356,0.60247 -0.48868,1.02842 -0.4764,0.68744 z m 0.68928,-0.35795 c 0.72846,-1.78458 3.16616,-4.01282 4.60155,-4.20617 0.9738,-0.13116 0.93567,-0.32163 -0.0619,-0.30914 -0.39702,0.005 -1.09353,0.27987 -1.5478,0.6109 -0.83866,0.61113 -1.1974,0.71371 -1.12403,0.32143 0.0223,-0.11941 0.18715,-0.18971 0.36626,-0.15621 0.17912,0.0335 0.34394,-0.0368 0.36627,-0.1562 0.11021,-0.58947 -0.97047,-0.0748 -1.35716,0.64633 -0.12013,0.22397 -0.36178,0.38041 -0.53705,0.34764 -0.42293,-0.0791 -0.037,-0.55143 1.09395,-1.33878 0.68771,-0.47878 0.76886,-0.59631 0.41078,-0.59498 -0.46529,0.002 -2.20614,1.59091 -3.00645,2.74453 -0.25485,0.36735 -0.50429,0.60817 -0.55429,0.53515 -0.05,-0.073 0.10457,-0.38366 0.34368,-0.69029 0.23903,-0.30665 0.47487,-0.65112 0.52408,-0.7655 0.0492,-0.1144 0.37349,-0.44069 0.72064,-0.72512 0.34714,-0.28442 0.65424,-0.64049 0.68245,-0.79128 0.0282,-0.15078 0.2913,-0.34116 0.58468,-0.42305 0.29339,-0.0818 0.91489,-0.29621 1.38112,-0.47627 0.76643,-0.29602 0.78803,-0.29461 0.22532,0.0148 -1.06779,0.58683 -0.5129,0.58052 1.12153,-0.0127 0.86123,-0.31261 1.42003,-0.59722 1.24179,-0.63245 -0.28698,-0.0568 -0.2823,-0.0811 0.0409,-0.21362 0.3038,-0.12447 0.29285,-0.16668 -0.0653,-0.25172 -0.35277,-0.0838 -0.31282,-0.12993 0.22177,-0.25626 0.35862,-0.0847 0.59302,-0.24028 0.52089,-0.34562 -0.0722,-0.10535 0.025,-0.0956 0.21536,0.0216 0.21341,0.13126 0.36597,0.10912 0.39712,-0.0574 0.0373,-0.19937 0.40166,-0.17342 1.38593,0.0987 1.02778,0.28417 1.23261,0.29592 0.8893,0.0509 -0.54692,-0.39038 -0.53639,-0.61971 0.0236,-0.51496 0.23006,0.043 0.34432,0.15951 0.25395,0.25876 -0.0904,0.0993 -0.0631,0.14141 0.0607,0.0935 0.47028,-0.18171 1.63144,0.48546 1.71717,0.98663 0.0809,0.47304 0.0511,0.48122 -0.53294,0.14655 -0.47082,-0.26977 -0.67177,-0.29617 -0.84075,-0.11052 -0.15216,0.16716 -0.40737,0.15384 -0.8106,-0.0423 -0.56798,-0.27633 -1.80683,-0.4716 -2.95074,-0.46505 -0.17939,0.001 -0.21002,0.45184 -0.0571,0.84142 0.0609,0.15532 -0.0221,0.31409 -0.18465,0.35281 -0.16249,0.0387 0.05,0.11559 0.47223,0.17082 0.50445,0.066 0.73211,0.18768 0.66394,0.35476 -0.0601,0.14726 0.13015,0.29807 0.45184,0.35823 0.31511,0.0589 0.51508,-9.5e-4 0.46201,-0.13829 -0.0515,-0.13322 0.0435,-0.21657 0.21091,-0.18527 0.45227,0.0846 2.6216,1.34769 2.90921,1.69391 0.14543,0.17507 0.26585,0.21109 0.28915,0.0865 0.0362,-0.19368 -0.82348,-0.91114 -2.13804,-1.78431 -0.4256,-0.28269 -0.37556,-0.28756 0.33757,-0.0329 0.4605,0.16445 0.94421,0.4552 1.07492,0.64606 0.13073,0.19085 0.33926,0.36601 0.46342,0.38924 0.12416,0.0232 0.63188,0.53544 1.12829,1.13826 0.49638,0.60283 0.96143,1.05572 1.03341,1.0064 0.16656,-0.11406 -1.5413,-2.24995 -1.84621,-2.30891 -0.12523,-0.0243 -0.32047,-0.17948 -0.43384,-0.34502 -0.30137,-0.44003 -1.63532,-1.15964 -2.43363,-1.31284 -0.38067,-0.0732 -0.73429,-0.24182 -0.78576,-0.37503 -0.227,-0.58753 2.80624,0.77475 3.82061,1.7159 1.07464,0.99708 3.11745,3.83915 3.04353,4.23436 -0.0444,0.23742 -0.15863,0.15988 -0.39509,-0.26818 -0.18294,-0.33119 -0.41064,-0.73969 -0.50601,-0.90778 -0.0954,-0.16808 -0.33657,-0.27565 -0.53602,-0.23905 -0.22567,0.0414 -0.59321,-0.25905 -0.97307,-0.79551 -0.33573,-0.47414 -0.62926,-0.76135 -0.65228,-0.63826 -0.023,0.1231 0.2024,0.53978 0.50094,0.92596 0.29854,0.38618 0.52343,0.80567 0.49977,0.93221 -0.0251,0.13385 0.15605,0.20555 0.43299,0.17152 0.36354,-0.0447 0.6338,0.18465 1.1438,0.97065 0.36729,0.56607 0.73659,0.98212 0.82066,0.92454 0.0841,-0.0576 0.0707,-0.25235 -0.0298,-0.43284 -0.10045,-0.18049 -0.11391,-0.44509 -0.0299,-0.58803 0.0918,-0.15616 0.22006,-3e-4 0.32149,0.38963 0.0928,0.35723 0.23422,0.66174 0.31422,0.6767 0.08,0.015 0.37896,0.52589 0.66437,1.13541 0.2854,0.60951 0.45102,1.09551 0.36804,1.07999 -0.17427,-0.0326 -0.72307,-0.91772 -1.06239,-1.7135 -0.12836,-0.30101 -0.33242,-0.50903 -0.45346,-0.46225 -0.12105,0.0468 -0.054,0.42268 0.14922,0.83539 0.74205,1.50767 0.80713,1.68512 0.60416,1.64717 -0.11374,-0.0213 -0.42825,-0.50984 -0.69892,-1.08569 -0.54579,-1.16116 -1.10542,-2.05756 -1.7857,-2.86026 l -0.451,-0.53214 0.41434,0.69293 c 0.22787,0.38111 0.33617,0.74645 0.24065,0.81186 -0.0955,0.0654 -0.56929,-0.52981 -1.05285,-1.32276 -1.34157,-2.19993 -2.53647,-3.25892 -2.93883,-2.60455 -0.11551,0.18791 -0.0832,0.32274 0.0798,0.33206 0.1509,0.009 0.42559,0.0558 0.61043,0.10505 0.45428,0.12097 1.89221,1.93133 1.77434,2.23393 -0.0518,0.13288 -0.0591,0.48828 -0.0165,0.7898 0.13395,0.94233 -0.50708,0.9525 -1.04577,0.0165 -0.49188,-0.85462 -0.43934,-1.21395 0.0867,-0.59304 0.27941,0.32976 0.30641,0.32289 0.23893,-0.0606 -0.0574,-0.3259 -9.9e-4,-0.38633 0.22849,-0.24521 0.53915,0.33151 0.36056,-0.10565 -0.40823,-0.99926 -0.77892,-0.90537 -1.10599,-1.10327 -1.17892,-0.71331 -0.0241,0.12886 -0.22598,0.0425 -0.46058,-0.19712 -0.22973,-0.2346 -0.89499,-0.58301 -1.47837,-0.77424 -0.76642,-0.25123 -0.93395,-0.3674 -0.60391,-0.41872 0.25121,-0.0391 0.73149,0.0661 1.06728,0.23378 0.44943,0.22436 0.7121,0.23522 0.99543,0.0412 0.23122,-0.15836 0.28686,-0.28194 0.13938,-0.30952 -0.13505,-0.0253 -0.30368,0.0589 -0.37472,0.18685 -0.097,0.17462 -0.23341,0.14911 -0.54659,-0.1022 -0.22959,-0.18424 -0.76579,-0.40014 -1.19157,-0.47976 -0.42579,-0.0797 -0.75589,-0.24249 -0.73355,-0.3619 0.0223,-0.11941 -0.054,-0.23481 -0.1697,-0.25643 -0.11567,-0.0216 -0.17992,0.1433 -0.14281,0.36652 0.0637,0.38277 0.0475,0.38039 -0.28522,-0.0419 -0.24274,-0.30822 -0.46453,-0.4033 -0.71135,-0.30502 -0.26796,0.10673 -0.28626,0.15723 -0.0724,0.19982 0.15743,0.0315 0.3962,0.21746 0.53054,0.41362 0.20802,0.30373 0.1452,0.3579 -0.42342,0.36501 -0.6864,0.009 -2.0917,0.55437 -2.4759,0.96156 -0.11902,0.12613 -0.36079,0.3376 -0.53728,0.46997 -0.3564,0.26721 -1.03057,1.03141 -1.06303,1.20493 -0.0116,0.0613 0.0769,0.12977 0.19626,0.1521 0.11941,0.0223 0.24007,-0.0822 0.26812,-0.23223 0.093,-0.49725 2.26426,-1.97178 3.18643,-2.16395 1.17987,-0.24586 3.97816,0.39158 3.14022,0.71534 -0.16223,0.0626 -0.56846,-0.0227 -0.90274,-0.19039 -1.48581,-0.74391 -3.66536,-0.0272 -4.96259,1.63179 -0.29911,0.38253 -0.54499,0.49418 -0.81153,0.36848 -0.27435,-0.12933 -0.47198,-0.0275 -0.69946,0.36049 -0.17438,0.29745 -0.44716,0.71873 -0.60618,0.93617 -0.22785,0.31156 -0.23494,0.26263 -0.0334,-0.23095 z m 4.9573,-5.13988 c 0.77023,-0.39121 0.26368,-0.34192 -0.79037,0.0769 -0.52872,0.21008 -1.06095,0.36333 -1.18274,0.34056 -0.12178,-0.0228 -0.24828,0.10219 -0.2811,0.2777 -0.0582,0.31094 0.78559,0.0508 2.25421,-0.69517 z m 2.97376,-1.72734 c -0.13799,-0.0882 -0.38224,-0.13384 -0.54277,-0.10149 -0.16052,0.0324 -0.0476,0.10444 0.25091,0.16026 0.29854,0.0558 0.42986,0.0294 0.29187,-0.0588 z m -7.33836,6.86571 c 0.20221,-0.33294 0.44394,-0.59108 0.53717,-0.57365 0.22561,0.0422 0.1968,0.13722 -0.22267,0.73425 -0.49814,0.7091 -0.76116,0.57479 -0.31452,-0.16061 z m -4.64335,-1.20544 c 0.10224,-0.16626 0.33394,-0.2746 0.51489,-0.24077 0.26785,0.0501 0.26744,0.11269 -0.002,0.33667 -0.18215,0.15132 -0.41385,0.25967 -0.5149,0.24076 -0.10103,-0.0189 -0.10006,-0.17039 0.002,-0.33666 z m 1.83412,-0.21137 c 0.27077,-0.70975 0.76655,-1.43616 1.09247,-1.60068 0.0893,-0.045 0.19719,-0.17659 0.23972,-0.29222 0.0426,-0.11562 0.39975,-0.60496 0.7938,-1.08742 0.52527,-0.64306 1.18989,-1.07346 2.49047,-1.61272 0.97569,-0.40457 1.91395,-0.70791 2.085,-0.6741 0.29639,0.0585 -0.34912,0.34541 -1.36376,0.60597 -0.25965,0.0667 -0.99063,0.43114 -1.62443,0.80992 -1.0553,0.6307 -1.5733,1.21255 -3.63503,4.08321 -0.33033,0.45995 -0.3359,0.44342 -0.0782,-0.23196 z m 0.3337,0.51997 c -0.0479,-0.12401 0.0237,-0.26827 0.15904,-0.32056 0.13538,-0.0523 0.21767,0.0572 0.18285,0.24337 -0.0713,0.38136 -0.2121,0.41314 -0.34188,0.0772 z m 13.28141,2.32381 c -0.0932,-0.50765 0.18932,-0.68268 0.36995,-0.2292 0.18061,0.45347 0.14156,0.69407 -0.10592,0.6478 -0.10664,-0.02 -0.22546,-0.20833 -0.26406,-0.4186 z m -14.4135,-2.93 c 0.0208,-0.11122 0.21672,-0.36503 0.43539,-0.56402 0.334,-0.30397 0.38811,-0.30512 0.3384,-0.007 -0.0324,0.19507 -0.22848,0.44886 -0.43539,0.56401 -0.20691,0.11515 -0.3592,0.11839 -0.3384,0.007 z m -0.60794,-0.35383 c 0.0223,-0.11941 0.2099,-0.31134 0.41681,-0.42648 0.20987,-0.1168 0.35826,-0.11338 0.33562,0.008 -0.0223,0.11941 -0.20991,0.31133 -0.41682,0.42649 -0.20986,0.11679 -0.35826,0.11337 -0.33561,-0.008 z m -0.32127,-0.68511 c 0.0725,-0.38743 0.87842,-1.42899 1.4075,-1.81897 0.17919,-0.13206 0.35099,-0.37482 0.38178,-0.53948 0.0308,-0.16465 0.24396,-0.36277 0.4737,-0.44026 0.22973,-0.0775 0.36722,-0.21461 0.30552,-0.3047 -0.16059,-0.23446 -1.3602,0.63315 -1.31627,0.95199 0.0201,0.14631 -0.11811,0.23709 -0.30712,0.20174 -0.18907,-0.0354 -0.36204,0.0334 -0.38437,0.15281 -0.0223,0.11941 -0.14989,0.19668 -0.28348,0.17169 -0.36373,-0.068 1.06306,-1.3215 2.75873,-2.42361 1.49895,-0.97426 1.75419,-1.22644 1.32292,-1.30709 -0.12646,-0.0237 -0.18131,0.0828 -0.12187,0.23662 0.0623,0.16152 0.0242,0.20336 -0.0903,0.099 -0.10911,-0.0994 -0.8804,0.33795 -1.71397,0.97172 -0.95963,0.72962 -1.62239,1.08663 -1.80678,0.97325 -0.24222,-0.14893 -0.22395,-0.20174 0.10866,-0.31392 0.21993,-0.0742 1.13148,-0.64128 2.0257,-1.26021 1.16325,-0.80514 1.68003,-1.04621 1.81629,-0.84726 0.13625,0.19895 0.31039,0.19592 0.61199,-0.0106 0.47394,-0.32459 0.62404,-0.34162 0.5723,-0.0649 -0.0369,0.19717 -1.50262,1.19969 -2.5766,1.76228 -0.34252,0.17942 -0.5668,0.40828 -0.49839,0.50858 0.15569,0.2283 2.62846,-1.21253 2.71088,-1.57957 0.0329,-0.14834 0.28976,-0.22669 0.56995,-0.17428 0.63155,0.11811 2.03826,-0.264 1.93698,-0.52614 -0.0692,-0.17898 1.14033,-0.35593 2.39262,-0.35004 0.29453,0.002 0.60791,-0.0522 0.69638,-0.11909 0.0885,-0.0668 -0.17299,-0.12045 -0.58106,-0.11904 -0.51517,0.002 -0.68268,-0.0626 -0.54807,-0.21048 0.3488,-0.38319 4.50611,1.02482 6.53267,2.21249 0.33413,0.19582 1.06148,0.78985 1.61631,1.32003 0.92718,0.88603 1.42846,1.1082 1.20699,0.53497 -0.21543,-0.55757 -3.56493,-2.77185 -5.26299,-3.47922 -1.00789,-0.41987 -1.53799,-0.71632 -1.178,-0.65878 0.36007,0.0571 1.26207,0.37056 2.00459,0.6956 0.74253,0.32504 1.46963,0.62745 1.61576,0.672 0.14616,0.0445 0.25051,0.16242 0.23189,0.26194 -0.0186,0.0995 0.0882,0.20436 0.23731,0.233 0.14912,0.0287 0.52866,0.25428 0.84341,0.50136 0.31475,0.24711 0.66905,0.383 0.78734,0.30198 0.11829,-0.0811 -0.14395,-0.39312 -0.58277,-0.69357 -0.43879,-0.30046 -0.78354,-0.62265 -0.76608,-0.716 0.0174,-0.0934 0.47652,0.15545 1.02012,0.55283 0.54362,0.3974 0.96975,0.82221 0.94696,0.94402 -0.0228,0.12181 -0.12183,0.14826 -0.22016,0.0588 -0.0983,-0.0895 -0.25868,-0.0749 -0.35638,0.0325 -0.0977,0.10735 -0.0891,0.21171 0.0191,0.23195 0.27448,0.0513 0.98805,0.97915 0.94207,1.22494 -0.0208,0.11136 -0.17481,0.29628 -0.34217,0.41091 -0.23393,0.16022 -0.43719,0.0661 -0.8789,-0.40684 -1.21083,-1.29651 -3.73653,-2.78797 -5.64465,-3.33324 -0.54629,-0.15609 -1.08042,-0.3632 -1.18697,-0.4602 -0.10659,-0.0969 -0.2131,-0.0729 -0.23675,0.0536 -0.0237,0.12645 -0.18955,0.20252 -0.36866,0.16902 -0.17913,-0.0335 -0.34394,0.0368 -0.36627,0.1562 -0.0474,0.25314 -0.009,0.26102 1.22466,0.25315 0.75759,-0.005 0.9032,0.0474 0.76366,0.27438 -0.0948,0.15423 -0.32849,0.23533 -0.51926,0.18024 -1.11211,-0.32121 -1.98843,-0.33362 -2.0454,-0.029 -0.0786,0.42053 -0.3837,0.35906 -0.65731,-0.13209 -0.15465,-0.27788 -0.29397,-0.33294 -0.49465,-0.1955 -0.20069,0.13744 -0.20151,0.26221 -0.003,0.44292 0.21134,0.19238 0.11902,0.25946 -0.39224,0.28502 -1.49082,0.0745 -5.48547,2.14974 -6.11153,3.17498 -0.44489,0.72859 -0.41837,1.04777 0.042,0.5058 0.50025,-0.58889 0.50722,-0.37184 0.0107,0.33485 -0.26146,0.37218 -0.39407,0.42676 -0.48687,0.20039 -0.10116,-0.24673 -0.18238,-0.25297 -0.3926,-0.0301 -0.14576,0.15455 -0.32038,0.20017 -0.38802,0.10139 -0.0677,-0.0987 0.0284,-0.30539 0.2135,-0.45914 0.18508,-0.15376 0.27667,-0.29074 0.20351,-0.30442 -0.0732,-0.0137 0.0769,-0.20647 0.33348,-0.4284 0.75904,-0.65657 3.4458,-2.51685 3.41765,-2.36634 -0.0143,0.0763 0.11546,0.0585 0.28825,-0.0393 0.76063,-0.4309 2.19057,-0.94422 2.47966,-0.89016 0.3138,0.0587 0.54559,-0.34444 0.23496,-0.40867 -0.47479,-0.0979 -3.32693,0.97646 -4.38982,1.65396 -1.26335,0.80526 -3.23171,2.75357 -3.33388,3.29991 -0.0317,0.16975 -0.16672,0.35074 -0.29992,0.40221 -0.13321,0.0515 -0.21196,-0.0681 -0.17502,-0.26569 z m 10.00246,-5.42396 c 0.28444,-0.11654 0.23337,-0.17494 -0.2314,-0.26454 -0.32801,-0.0634 -0.6147,-0.0169 -0.63703,0.10213 -0.0513,0.27451 0.39231,0.35748 0.86843,0.16241 z m 9.93948,9.0306 c -0.16617,-0.26794 -0.25298,-0.47799 -0.19293,-0.46676 0.06,0.0116 -0.22223,-0.41442 -0.62727,-0.94591 -0.40504,-0.53147 -1.07331,-1.42033 -1.48504,-1.97521 -0.41173,-0.55488 -1.31165,-1.51259 -1.99983,-2.12826 -1.3182,-1.17927 -1.33024,-1.46116 -0.0183,-0.42823 1.40275,1.10445 1.64355,1.34357 1.47156,1.46136 -0.0937,0.0642 -0.0759,0.13428 0.0396,0.15588 0.11543,0.0216 0.32469,-0.0394 0.46504,-0.13552 0.16839,-0.11533 0.60176,0.20238 1.27459,0.93433 0.5607,0.60998 1.03559,1.204 1.05535,1.32004 0.0198,0.11606 0.1356,0.17247 0.25743,0.12537 0.12184,-0.0471 0.18072,0.13258 0.13084,0.39928 l -0.0907,0.48488 -0.48581,-0.6356 c -0.26718,-0.34959 -0.80577,-1.0706 -1.19686,-1.60226 -0.39107,-0.53166 -0.80317,-0.93108 -0.91578,-0.88757 -0.17387,0.0672 0.93894,1.83792 1.18381,1.88372 0.0467,0.009 0.36796,0.46876 0.7139,1.02229 0.34592,0.55351 0.69241,0.98192 0.76996,0.95201 0.0775,-0.0299 0.11115,0.18313 0.0747,0.47341 -0.0364,0.2903 -0.0789,0.51702 -0.0942,0.50385 -0.0154,-0.0131 -0.16389,-0.24318 -0.33005,-0.51113 z m -9.76129,-5.17736 c 0.0223,-0.11941 0.13831,-0.19883 0.25772,-0.1765 0.11941,0.0223 0.19883,0.13831 0.1765,0.25771 -0.0223,0.11941 -0.13831,0.19883 -0.25771,0.1765 -0.11941,-0.0223 -0.19884,-0.1383 -0.17651,-0.25771 z m 9.12856,1.51366 c -0.24322,-0.27551 -1.0351,-1.08086 -1.75976,-1.78966 -0.72465,-0.70882 -1.17773,-1.25981 -1.00686,-1.22445 0.17093,0.035 0.86337,0.61159 1.5389,1.28053 0.67551,0.66893 1.32884,1.17735 1.45183,1.12983 0.12298,-0.0475 0.0818,-0.23719 -0.0914,-0.42148 -0.27588,-0.29345 -0.27079,-0.34322 0.0408,-0.40042 0.19635,-0.036 0.34115,0.0546 0.32301,0.20235 -0.0486,0.39564 -0.0232,0.89304 0.069,1.35406 0.10404,0.52015 -0.0148,0.49259 -0.56549,-0.13078 z m -18.31513,-4.02907 c 0.0474,-0.28629 1.80145,-1.54981 2.9688,-2.13798 0.81861,-0.41245 1.16922,-0.79163 0.78703,-0.85119 -0.0901,-0.0138 -0.84254,0.40054 -1.67218,0.92128 -0.82963,0.52073 -1.53744,0.90441 -1.5729,0.85265 -0.12351,-0.18035 1.88129,-1.58468 2.18196,-1.52845 0.16657,0.0311 0.26377,-0.0445 0.21602,-0.16812 -0.0478,-0.12364 0.12161,-0.25044 0.37649,-0.2818 0.25484,-0.0314 0.48038,-0.14813 0.5012,-0.25949 0.0208,-0.11137 0.16785,-0.17817 0.32673,-0.14845 0.15888,0.0297 0.81679,-0.10898 1.46203,-0.3082 0.67558,-0.20858 0.92819,-0.35478 0.5956,-0.34469 -1.1595,0.0352 -2.6936,0.53058 -3.77325,1.21848 -0.60807,0.38743 -1.13577,0.69877 -1.17269,0.69187 -0.0369,-0.007 -0.10018,-0.19261 -0.14056,-0.41267 -0.0404,-0.22007 -0.0191,-0.32076 0.0469,-0.22383 0.15529,0.22674 1.00028,-0.0363 1.05491,-0.32841 0.0229,-0.12225 -0.0842,-0.17366 -0.23806,-0.11422 -0.17324,0.0669 -0.20286,0.0238 -0.0779,-0.11364 0.111,-0.12192 0.39141,-0.18622 0.62318,-0.14288 0.23177,0.0433 0.43806,-0.0102 0.45842,-0.1191 0.0309,-0.16527 2.07222,-0.61576 3.57422,-0.78877 0.22105,-0.0255 0.43295,-0.22062 0.4709,-0.43369 0.0558,-0.31475 0.0214,-0.33617 -0.18482,-0.11441 -0.13961,0.15011 -0.48812,0.26469 -0.77447,0.25462 -0.28632,-0.0104 -1.19287,0.15486 -2.01452,0.36655 -0.82164,0.21169 -1.44387,0.29476 -1.38274,0.18458 0.0611,-0.11017 0.18344,-0.16151 0.27177,-0.11409 0.0883,0.0474 0.27153,-0.0357 0.40709,-0.18459 0.27324,-0.30016 2.27549,-0.71764 2.89107,-0.60281 0.21603,0.0403 0.35191,-0.0326 0.30194,-0.16182 -0.05,-0.12931 0.18926,-0.25222 0.53158,-0.27314 0.39575,-0.0242 0.6358,0.0592 0.65918,0.22905 0.0202,0.14689 0.1368,0.28578 0.25903,0.30863 0.12223,0.0229 0.19531,-0.10518 0.16239,-0.28455 -0.0368,-0.20072 0.1313,-0.34088 0.43736,-0.36454 0.7854,-0.0607 0.96527,0.033 0.50579,0.26337 -0.23329,0.117 -0.57205,0.4549 -0.75281,0.75088 -0.2873,0.47052 -0.2747,0.54824 0.10024,0.61836 0.23586,0.0441 0.44746,-0.0193 0.47022,-0.14104 0.0228,-0.12168 0.25097,-0.12543 0.50713,-0.008 0.25617,0.11709 0.87513,0.18665 1.37549,0.15457 l 0.90973,-0.0584 -1.1532,-0.14171 c -1.05563,-0.12967 -1.50138,-0.4204 -0.80111,-0.52241 0.15881,-0.0231 0.0367,-0.0463 -0.27129,-0.0512 -0.40748,-0.007 -0.48351,-0.0627 -0.27916,-0.20555 0.44553,-0.31138 1.56642,-0.24565 1.36613,0.0801 -0.0986,0.16022 -0.007,0.31183 0.22668,0.37392 0.25889,0.0688 0.37157,-0.009 0.33118,-0.22916 -0.0337,-0.18346 0.0503,-0.3127 0.18592,-0.28735 0.13594,0.0254 0.27587,0.20269 0.31098,0.39393 0.0352,0.19124 0.17302,0.3055 0.3065,0.25393 0.14933,-0.0577 0.14301,-0.18791 -0.0164,-0.33852 -0.43172,-0.40782 1.79257,0.51751 3.57407,1.48685 0.056,0.0306 0.45983,0.30469 0.89721,0.60925 1.24802,0.86904 0.40705,0.72909 -0.98311,-0.16361 -1.601,-1.02808 -2.41874,-1.33845 -3.14477,-1.19359 l -0.58353,0.11643 0.54488,0.0902 c 0.91648,0.15166 2.68635,0.95173 3.51034,1.58679 0.42963,0.33113 0.93737,0.63125 1.12829,0.66696 0.19092,0.0357 0.26877,0.15099 0.17299,0.25624 -0.10923,0.11998 -0.39776,0.017 -0.77389,-0.27621 -0.43119,-0.33612 -0.67834,-0.41368 -0.87938,-0.27598 -0.20106,0.1377 -0.17952,0.21025 0.0766,0.25815 0.19594,0.0367 0.40288,0.18731 0.45987,0.33478 0.0673,0.17424 -0.031,0.19831 -0.28047,0.0688 -1.76327,-0.91557 -3.85686,-1.58193 -5.79143,-1.84335 -1.8607,-0.25144 -2.01934,-0.30379 -1.58739,-0.52342 0.45577,-0.23179 0.44924,-0.24449 -0.12965,-0.25225 -0.33529,-0.005 -0.54233,-0.0821 -0.46008,-0.17241 0.0822,-0.0904 -0.0517,-0.20192 -0.29749,-0.24789 -0.24587,-0.046 -0.46639,0.0198 -0.49005,0.14632 -0.0237,0.12646 0.0687,0.18677 0.20522,0.13401 0.1365,-0.0527 0.1971,0.0287 0.13478,0.18047 -0.0625,0.15199 0.0209,0.27371 0.18525,0.27048 0.16429,-0.004 0.21807,0.0827 0.11956,0.19089 -0.0984,0.10823 -0.31989,0.17045 -0.49196,0.13827 -0.17207,-0.0322 -0.33219,0.045 -0.35585,0.17142 -0.0237,0.12645 -0.13024,0.15049 -0.23687,0.0535 -0.10662,-0.0971 -0.48808,-0.0228 -0.84767,0.16526 -0.3596,0.18796 -0.77521,0.31903 -0.92361,0.29128 -0.14838,-0.0278 -0.41883,0.0734 -0.60098,0.22465 -0.4824,0.40077 -0.0871,0.38522 1.01866,-0.04 1.09848,-0.42247 1.50432,-0.43394 1.01654,-0.0288 -0.18215,0.15132 -0.25842,0.28873 -0.16947,0.30536 0.089,0.0166 0.0127,0.15404 -0.16946,0.30536 -0.18215,0.15132 -0.43559,0.25559 -0.56319,0.23172 -0.12761,-0.0239 -0.0156,-0.15136 0.24902,-0.28332 0.4751,-0.23698 0.47588,-0.24101 0.0619,-0.32549 -0.23039,-0.0472 -0.69083,0.0885 -1.02315,0.3012 -0.50529,0.3234 -0.62637,0.3293 -0.73966,0.0361 -0.14992,-0.38804 -0.4715,-0.22825 -2.6285,1.30605 -0.61909,0.44037 -1.10871,0.69779 -1.08806,0.57206 z m 6.84018,-3.69935 c -0.35804,-0.1987 -2.98018,0.55655 -2.80755,0.80864 0.0536,0.0783 0.75428,-0.0456 1.55708,-0.27515 0.8028,-0.22958 1.36552,-0.46965 1.25047,-0.53349 z m 8.39475,1.50821 c 0.0193,-0.10288 -0.26862,-0.32082 -0.6397,-0.4843 -0.37108,-0.1635 -0.81461,-0.36015 -0.98561,-0.43705 -0.64395,-0.28958 -4.14831,-0.83939 -4.52987,-0.71064 -0.26969,0.0909 0.15923,0.23421 1.33156,0.44468 2.09693,0.37639 4.12859,1.0073 4.24915,1.31936 0.0988,0.25578 0.52005,0.15891 0.57447,-0.13205 z m 0.7944,4.79333 c -1.07662,-0.95873 -1.70006,-1.59677 -1.52899,-1.56477 0.33426,0.0625 2.29599,1.63908 2.26247,1.81828 -0.0435,0.2329 -0.27843,0.15171 -0.73348,-0.25351 z m -8.96703,-1.94466 c 0.18215,-0.15131 0.42888,-0.25684 0.54829,-0.23451 0.1211,0.0226 0.0706,0.16224 -0.11409,0.31572 -0.18215,0.15131 -0.42887,0.25685 -0.54828,0.23451 -0.12111,-0.0226 -0.0707,-0.16225 0.11408,-0.31572 z m 2.95128,0.43959 -0.83936,-0.31791 0.92846,0.1418 c 0.51067,0.078 0.91022,0.23941 0.88787,0.35887 -0.0223,0.1194 -0.0625,0.19867 -0.0891,0.17615 -0.0267,-0.0226 -0.42621,-0.18403 -0.88787,-0.35886 z m -0.88022,-0.70018 c 0.008,-0.0458 0.26855,-0.0843 0.57775,-0.0855 0.30919,-9.9e-4 0.54644,0.0819 0.5272,0.18478 -0.0193,0.10285 -0.27922,0.14131 -0.57775,0.0855 -0.29853,-0.0559 -0.53576,-0.13896 -0.52719,-0.18478 z m 5.47852,0.22252 c -0.21522,-0.12703 -0.28435,-0.27225 -0.15362,-0.32276 0.24986,-0.0965 0.87122,0.35196 0.6646,0.47968 -0.0658,0.0407 -0.29577,-0.0299 -0.51099,-0.1569 z m -8.39092,-2.52875 c 0.3151,-0.39262 1.20658,-0.64279 1.46983,-0.41245 0.0869,0.076 0.24987,-0.0572 0.36237,-0.29566 0.11248,-0.23858 0.21855,-0.43652 0.23568,-0.43988 0.017,-0.003 0.59177,0.0451 1.27703,0.10783 0.7994,0.0731 1.28339,0.21092 1.35047,0.38449 0.0713,0.18471 -0.0838,0.1981 -0.48866,0.0422 -0.82119,-0.31621 -2.04238,-0.28928 -2.10518,0.0465 -0.0632,0.33791 -0.66645,0.50933 -1.59442,0.45309 -0.14893,-0.009 -0.24514,0.1232 -0.21381,0.29383 0.0317,0.17294 -0.0862,0.2835 -0.26634,0.2498 -0.24971,-0.0467 -0.25585,-0.14449 -0.027,-0.42968 z m 10.88971,0.82743 c 0.0857,-0.0587 0.27432,-0.0313 0.41934,0.0606 0.16024,0.10169 0.0992,0.14352 -0.1557,0.10664 -0.23071,-0.033 -0.34927,-0.10868 -0.26363,-0.16731 z m -13.13806,-4.56831 c 0.20076,-0.0822 0.51157,-0.12216 0.69068,-0.0887 0.28949,0.0541 0.28511,0.0775 -0.0394,0.21046 -0.20077,0.0822 -0.51158,0.12215 -0.69069,0.0887 -0.28949,-0.0541 -0.28511,-0.0775 0.0394,-0.21046 z m 11.35057,1.78569 c -0.26661,-0.22648 -0.75277,-0.46549 -1.08035,-0.53114 -0.32765,-0.0653 -0.57522,-0.22844 -0.55028,-0.36176 0.0266,-0.14212 -0.18948,-0.24148 -0.52221,-0.24015 -0.31213,9.1e-4 -0.59682,-0.0735 -0.6326,-0.16613 -0.0358,-0.0927 -0.73367,-0.26798 -1.55085,-0.38973 -0.85985,-0.12805 -1.29155,-0.25752 -1.02472,-0.30726 0.25359,-0.0473 1.47688,0.0906 2.71841,0.30642 1.88095,0.32695 2.20728,0.43396 1.95703,0.64187 -0.24111,0.2003 -0.14497,0.3133 0.48763,0.57313 0.43338,0.17799 0.85446,0.32225 0.93574,0.32056 0.0813,-0.002 0.17602,0.15068 0.21051,0.3386 0.0786,0.42856 -0.31734,0.35153 -0.9483,-0.18447 z m -10.20744,-1.89055 c 0.014,-0.0754 0.29355,-0.18548 0.621,-0.24453 0.36226,-0.0653 0.55299,-0.21703 0.48715,-0.38746 -0.0595,-0.15405 -0.0278,-0.20687 0.0705,-0.11741 0.27235,0.24791 2.81265,0.0809 3.07004,-0.20205 0.17541,-0.1927 0.27381,-0.17943 0.43708,0.0589 0.235,0.34311 0.14176,0.36996 -2.40109,0.69106 -0.82275,0.1039 -1.67914,0.22258 -1.90312,0.26374 -0.22396,0.0411 -0.39567,0.0131 -0.3816,-0.0622 z m 4.92939,-0.80561 c 0.0449,-0.40719 0.13238,-0.43145 0.71981,-0.1996 1.70457,0.67281 2.82956,0.83446 2.65453,0.38146 -0.046,-0.11926 -0.0325,-0.20726 0.0295,-0.19566 0.0625,0.0117 0.17938,0.22873 0.25963,0.48228 0.13768,0.43503 0.0594,0.44513 -1.38791,0.17917 -0.84366,-0.15472 -1.71229,-0.2599 -1.93044,-0.23302 -0.28408,0.035 -0.38214,-0.0827 -0.34557,-0.41473 z m -2.54003,-0.55631 c 0.98134,-0.11608 1.6442,0.003 1.41304,0.25408 -0.0775,0.0843 -0.63398,0.0859 -1.23654,0.004 l -1.09554,-0.14955 0.91914,-0.1087 z"
       id="path2617"
       style="stroke-width:0.264583;stroke:#ffffff;stroke-opacity:1;fill:none;fill-opacity:1"
       inkscape:export-filename=".\path2617.png"
       inkscape:export-xdpi="1146.8517"
       inkscape:export-ydpi="1146.8517" /><ellipse
       style="fill:none;fill-opacity:1;stroke:#ffffff;stroke-width:0.224502;stroke-dasharray:none;stroke-opacity:1"
       id="path2631"
       cx="111.7535"
       cy="121.62012"
       rx="12.85173"
       ry="17.75071" /></g></svg>
